<svg xmlns="http://www.w3.org/2000/svg" data-name="Layer 1" viewBox="0 0 93 116.25" x="0px" y="0px"><defs><style>.cls-1{fill-rule:evenodd;}</style></defs><title>a</title><path class="cls-1" d="M29.835,69.594a2.864,2.864,0,1,1-2.86-2.865,2.865,2.865,0,0,1,2.86,2.865ZM91.487,47.026V45.972a4.192,4.192,0,0,0-8.216-.527H73.5V39.217H78.08a1.827,1.827,0,0,0,1.744-1.447l2-5.576q.186.018.372.018a4.2,4.2,0,1,0-2.355-.73l-2,5.575q-.012.028-.024.051H73.5V22.881a1.053,1.053,0,0,0-1.05-1.054H58.227V17.511a.2.2,0,0,1,.049-.019l5.571-2a4.194,4.194,0,1,0-.727-2.362c0,.128.008.252.016.377l-5.579,2a1.834,1.834,0,0,0-1.446,1.742v4.578H49.887V12.062a4.2,4.2,0,1,0-2.108,0v9.765H41.547V10.279a1.027,1.027,0,0,0-.174-.577A12.862,12.862,0,0,0,36.8,5.479a13.681,13.681,0,0,0-13.085,0,12.837,12.837,0,0,0-5.538,6,.6.6,0,0,0-.041.109,10.839,10.839,0,0,0-2.322,1.635,10.406,10.406,0,0,0-3.4,7.79,9.414,9.414,0,0,0-7.9,6.517,8.837,8.837,0,0,0,2.273,8.908A13.067,13.067,0,0,0,3.468,52.787a9.054,9.054,0,0,0-1.653,7.932A9.441,9.441,0,0,0,5.6,66.032,8.351,8.351,0,0,0,6.27,76.809,9.3,9.3,0,0,0,17.3,78.527a12.589,12.589,0,0,0,6.422,8.992,13.672,13.672,0,0,0,13.085,0,12.85,12.85,0,0,0,4.57-4.222,1.027,1.027,0,0,0,.174-.577V71.172h6.232v9.765a4.2,4.2,0,1,0,2.108,0V71.172h6.224V75.75a1.833,1.833,0,0,0,1.446,1.742l5.579,2c-.008.123-.016.248-.016.375a4.19,4.19,0,1,0,.727-2.361l-5.571-2a.168.168,0,0,1-.049-.019V71.172H72.451a1.053,1.053,0,0,0,1.05-1.054V55.891h4.315c.008.016.016.032.024.05l2,5.576a4.185,4.185,0,1,0,2.355-.73q-.186,0-.372.018l-2-5.575a1.827,1.827,0,0,0-1.744-1.448H73.5V47.555h9.77a4.192,4.192,0,0,0,8.216-.529ZM23.429,46.5a2.864,2.864,0,1,1-2.868-2.867A2.867,2.867,0,0,1,23.429,46.5Zm3.546-20.229a2.867,2.867,0,1,1,2.86-2.866,2.867,2.867,0,0,1-2.86,2.866Zm-20,30.741A13.6,13.6,0,0,1,4.7,54.694a6.922,6.922,0,0,0-.843,5.486A7.648,7.648,0,0,0,10.5,65.674a1.055,1.055,0,0,1-.108,2.1c-.033,0-.074,0-.107-.005a10.131,10.131,0,0,1-2.818-.716,6.263,6.263,0,0,0,.33,8.3,7.154,7.154,0,0,0,9.72.479,1.05,1.05,0,0,1,1.124-.155,1.031,1.031,0,0,1,.612.959,10.386,10.386,0,0,0,5.48,9.031,11.548,11.548,0,0,0,11.051,0A10.822,10.822,0,0,0,39.439,82.4V57.974H32.273a2.192,2.192,0,0,0-.1.236L29.6,65.376a4.965,4.965,0,1,1-1.983-.714L30.19,57.5c.389-1.085,1.033-1.634,1.926-1.634h7.323v-8.31H25.429a4.976,4.976,0,1,1,0-2.11h14.01v-8.31H32.116c-.893,0-1.537-.55-1.926-1.635l-2.57-7.163a4.99,4.99,0,1,1,1.983-.713l2.571,7.165a2.327,2.327,0,0,0,.1.237h7.166V10.6a10.835,10.835,0,0,0-3.653-3.274,11.548,11.548,0,0,0-11.051,0A10.834,10.834,0,0,0,21.156,10.5a11.534,11.534,0,0,1,7.307.865,1.053,1.053,0,1,1-.9,1.9,9.384,9.384,0,0,0-10.316,1.5,8.308,8.308,0,0,0-2.719,6.189,9.843,9.843,0,0,1,3.339.874,1.055,1.055,0,0,1-.884,1.915,7.828,7.828,0,0,0-4-.681A7.335,7.335,0,0,0,6.535,28.14a6.821,6.821,0,0,0,2.562,7.5,1.042,1.042,0,0,1,.43.87,1.062,1.062,0,0,1-.463.849,11.124,11.124,0,0,0-4.9,10.93A11.287,11.287,0,0,0,8.3,55.367a1.053,1.053,0,0,1-.661,1.877,1.068,1.068,0,0,1-.662-.232Zm34.575,1.907V34.08H61.252V58.919ZM71.393,23.936V69.063H41.547V61.028H62.3a1.055,1.055,0,0,0,1.058-1.055V33.026A1.054,1.054,0,0,0,62.3,31.972H41.547V23.936ZM46.746,8.005a2.083,2.083,0,1,1,2.083,2.082,2.085,2.085,0,0,1-2.083-2.082ZM67.31,11.049a2.083,2.083,0,1,1-2.083,2.083,2.085,2.085,0,0,1,2.083-2.083ZM82.2,25.938a2.083,2.083,0,1,1-2.083,2.082A2.085,2.085,0,0,1,82.2,25.938Zm5.133,18.479A2.083,2.083,0,1,1,85.246,46.5a2.085,2.085,0,0,1,2.083-2.082Zm-3.05,20.562A2.083,2.083,0,1,1,82.2,62.9a2.085,2.085,0,0,1,2.083,2.083ZM67.31,77.784a2.083,2.083,0,1,1-2.083,2.082,2.085,2.085,0,0,1,2.083-2.082Zm-16.4,7.21a2.083,2.083,0,1,1-2.083-2.083A2.085,2.085,0,0,1,50.912,84.994Z"/><text x="0" y="108" fill="#000000" font-size="5px" font-weight="bold" font-family="'Helvetica Neue', Helvetica, Arial-Unicode, Arial, Sans-serif">Created by rukanicon</text><text x="0" y="113" fill="#000000" font-size="5px" font-weight="bold" font-family="'Helvetica Neue', Helvetica, Arial-Unicode, Arial, Sans-serif">from the Noun Project</text></svg>