<svg xmlns="http://www.w3.org/2000/svg" xmlns:xlink="http://www.w3.org/1999/xlink" version="1.1" width="1000" height="1000" viewBox="0 0 1000 1000" xml:space="preserve">
<desc>Created with Fabric.js 3.5.0</desc>
<defs>
</defs>
<rect x="0" y="0" width="100%" height="100%" fill="rgba(0,0,0,0)"/>
<g transform="matrix(7.8201 0 0 7.8201 499.9983 499.9984)" id="616772">
<path style="stroke: none; stroke-width: 1; stroke-dasharray: none; stroke-linecap: butt; stroke-dashoffset: 0; stroke-linejoin: miter; stroke-miterlimit: 4; is-custom-font: none; font-file-url: none; fill: rgb(217,217,217); fill-rule: evenodd; opacity: 1;" transform=" translate(-46.5006, -46.4995)" d="M 29.835 69.594 a 2.864 2.864 0 1 1 -2.86 -2.865 a 2.865 2.865 0 0 1 2.86 2.865 Z M 91.487 47.026 V 45.972 a 4.192 4.192 0 0 0 -8.216 -0.527 H 73.5 V 39.217 H 78.08 a 1.827 1.827 0 0 0 1.744 -1.447 l 2 -5.576 q 0.186 0.018 0.372 0.018 a 4.2 4.2 0 1 0 -2.355 -0.73 l -2 5.575 q -0.012 0.028 -0.024 0.051 H 73.5 V 22.881 a 1.053 1.053 0 0 0 -1.05 -1.054 H 58.227 V 17.511 a 0.2 0.2 0 0 1 0.049 -0.019 l 5.571 -2 a 4.194 4.194 0 1 0 -0.727 -2.362 c 0 0.128 0.008 0.252 0.016 0.377 l -5.579 2 a 1.834 1.834 0 0 0 -1.446 1.742 v 4.578 H 49.887 V 12.062 a 4.2 4.2 0 1 0 -2.108 0 v 9.765 H 41.547 V 10.279 a 1.027 1.027 0 0 0 -0.174 -0.577 A 12.862 12.862 0 0 0 36.8 5.479 a 13.681 13.681 0 0 0 -13.085 0 a 12.837 12.837 0 0 0 -5.538 6 a 0.6 0.6 0 0 0 -0.041 0.109 a 10.839 10.839 0 0 0 -2.322 1.635 a 10.406 10.406 0 0 0 -3.4 7.79 a 9.414 9.414 0 0 0 -7.9 6.517 a 8.837 8.837 0 0 0 2.273 8.908 A 13.067 13.067 0 0 0 3.468 52.787 a 9.054 9.054 0 0 0 -1.653 7.932 A 9.441 9.441 0 0 0 5.6 66.032 A 8.351 8.351 0 0 0 6.27 76.809 A 9.3 9.3 0 0 0 17.3 78.527 a 12.589 12.589 0 0 0 6.422 8.992 a 13.672 13.672 0 0 0 13.085 0 a 12.85 12.85 0 0 0 4.57 -4.222 a 1.027 1.027 0 0 0 0.174 -0.577 V 71.172 h 6.232 v 9.765 a 4.2 4.2 0 1 0 2.108 0 V 71.172 h 6.224 V 75.75 a 1.833 1.833 0 0 0 1.446 1.742 l 5.579 2 c -0.008 0.123 -0.016 0.248 -0.016 0.375 a 4.19 4.19 0 1 0 0.727 -2.361 l -5.571 -2 a 0.168 0.168 0 0 1 -0.049 -0.019 V 71.172 H 72.451 a 1.053 1.053 0 0 0 1.05 -1.054 V 55.891 h 4.315 c 0.008 0.016 0.016 0.032 0.024 0.05 l 2 5.576 a 4.185 4.185 0 1 0 2.355 -0.73 q -0.186 0 -0.372 0.018 l -2 -5.575 a 1.827 1.827 0 0 0 -1.744 -1.448 H 73.5 V 47.555 h 9.77 a 4.192 4.192 0 0 0 8.216 -0.529 Z M 23.429 46.5 a 2.864 2.864 0 1 1 -2.868 -2.867 A 2.867 2.867 0 0 1 23.429 46.5 Z m 3.546 -20.229 a 2.867 2.867 0 1 1 2.86 -2.866 a 2.867 2.867 0 0 1 -2.86 2.866 Z m -20 30.741 A 13.6 13.6 0 0 1 4.7 54.694 a 6.922 6.922 0 0 0 -0.843 5.486 A 7.648 7.648 0 0 0 10.5 65.674 a 1.055 1.055 0 0 1 -0.108 2.1 c -0.033 0 -0.074 0 -0.107 -0.005 a 10.131 10.131 0 0 1 -2.818 -0.716 a 6.263 6.263 0 0 0 0.33 8.3 a 7.154 7.154 0 0 0 9.72 0.479 a 1.05 1.05 0 0 1 1.124 -0.155 a 1.031 1.031 0 0 1 0.612 0.959 a 10.386 10.386 0 0 0 5.48 9.031 a 11.548 11.548 0 0 0 11.051 0 A 10.822 10.822 0 0 0 39.439 82.4 V 57.974 H 32.273 a 2.192 2.192 0 0 0 -0.1 0.236 L 29.6 65.376 a 4.965 4.965 0 1 1 -1.983 -0.714 L 30.19 57.5 c 0.389 -1.085 1.033 -1.634 1.926 -1.634 h 7.323 v -8.31 H 25.429 a 4.976 4.976 0 1 1 0 -2.11 h 14.01 v -8.31 H 32.116 c -0.893 0 -1.537 -0.55 -1.926 -1.635 l -2.57 -7.163 a 4.99 4.99 0 1 1 1.983 -0.713 l 2.571 7.165 a 2.327 2.327 0 0 0 0.1 0.237 h 7.166 V 10.6 a 10.835 10.835 0 0 0 -3.653 -3.274 a 11.548 11.548 0 0 0 -11.051 0 A 10.834 10.834 0 0 0 21.156 10.5 a 11.534 11.534 0 0 1 7.307 0.865 a 1.053 1.053 0 1 1 -0.9 1.9 a 9.384 9.384 0 0 0 -10.316 1.5 a 8.308 8.308 0 0 0 -2.719 6.189 a 9.843 9.843 0 0 1 3.339 0.874 a 1.055 1.055 0 0 1 -0.884 1.915 a 7.828 7.828 0 0 0 -4 -0.681 A 7.335 7.335 0 0 0 6.535 28.14 a 6.821 6.821 0 0 0 2.562 7.5 a 1.042 1.042 0 0 1 0.43 0.87 a 1.062 1.062 0 0 1 -0.463 0.849 a 11.124 11.124 0 0 0 -4.9 10.93 A 11.287 11.287 0 0 0 8.3 55.367 a 1.053 1.053 0 0 1 -0.661 1.877 a 1.068 1.068 0 0 1 -0.662 -0.232 Z m 34.575 1.907 V 34.08 H 61.252 V 58.919 Z M 71.393 23.936 V 69.063 H 41.547 V 61.028 H 62.3 a 1.055 1.055 0 0 0 1.058 -1.055 V 33.026 A 1.054 1.054 0 0 0 62.3 31.972 H 41.547 V 23.936 Z M 46.746 8.005 a 2.083 2.083 0 1 1 2.083 2.082 a 2.085 2.085 0 0 1 -2.083 -2.082 Z M 67.31 11.049 a 2.083 2.083 0 1 1 -2.083 2.083 a 2.085 2.085 0 0 1 2.083 -2.083 Z M 82.2 25.938 a 2.083 2.083 0 1 1 -2.083 2.082 A 2.085 2.085 0 0 1 82.2 25.938 Z m 5.133 18.479 A 2.083 2.083 0 1 1 85.246 46.5 a 2.085 2.085 0 0 1 2.083 -2.082 Z m -3.05 20.562 A 2.083 2.083 0 1 1 82.2 62.9 a 2.085 2.085 0 0 1 2.083 2.083 Z M 67.31 77.784 a 2.083 2.083 0 1 1 -2.083 2.082 a 2.085 2.085 0 0 1 2.083 -2.082 Z m -16.4 7.21 a 2.083 2.083 0 1 1 -2.083 -2.083 A 2.085 2.085 0 0 1 50.912 84.994 Z" stroke-linecap="round"/>
</g>
</svg>