<svg version="1.1" xmlns="http://www.w3.org/2000/svg" viewBox="0 0 312.1111469604398 310.43270166991596" width="312.1111469604398" height="310.43270166991596" filter="invert(93%) hue-rotate(180deg)">
  <!-- svg-source:excalidraw -->
  
  <defs>
    <style class="style-fonts">
      @font-face {
        font-family: "Virgil";
        src: url("https://excalidraw.com/Virgil.woff2");
      }
      @font-face {
        font-family: "Cascadia";
        src: url("https://excalidraw.com/Cascadia.woff2");
      }
    </style>
    
  </defs>
  <g stroke-linecap="round" transform="translate(158.62661972817966 10) rotate(0 37 37)"><path d="M74 37 C74 38.93, 73.85 40.88, 73.54 42.79 C73.24 44.69, 72.79 46.6, 72.19 48.43 C71.59 50.27, 70.84 52.08, 69.97 53.8 C69.09 55.52, 68.07 57.19, 66.93 58.75 C65.8 60.31, 64.53 61.8, 63.16 63.16 C61.8 64.53, 60.31 65.8, 58.75 66.93 C57.19 68.07, 55.52 69.09, 53.8 69.97 C52.08 70.84, 50.27 71.59, 48.43 72.19 C46.6 72.79, 44.69 73.24, 42.79 73.54 C40.88 73.85, 38.93 74, 37 74 C35.07 74, 33.12 73.85, 31.21 73.54 C29.31 73.24, 27.4 72.79, 25.57 72.19 C23.73 71.59, 21.92 70.84, 20.2 69.97 C18.48 69.09, 16.81 68.07, 15.25 66.93 C13.69 65.8, 12.2 64.53, 10.84 63.16 C9.47 61.8, 8.2 60.31, 7.07 58.75 C5.93 57.19, 4.91 55.52, 4.03 53.8 C3.16 52.08, 2.41 50.27, 1.81 48.43 C1.21 46.6, 0.76 44.69, 0.46 42.79 C0.15 40.88, 0 38.93, 0 37 C0 35.07, 0.15 33.12, 0.46 31.21 C0.76 29.31, 1.21 27.4, 1.81 25.57 C2.41 23.73, 3.16 21.92, 4.03 20.2 C4.91 18.48, 5.93 16.81, 7.07 15.25 C8.2 13.69, 9.47 12.2, 10.84 10.84 C12.2 9.47, 13.69 8.2, 15.25 7.07 C16.81 5.93, 18.48 4.91, 20.2 4.03 C21.92 3.16, 23.73 2.41, 25.57 1.81 C27.4 1.21, 29.31 0.76, 31.21 0.46 C33.12 0.15, 35.07 0, 37 0 C38.93 0, 40.88 0.15, 42.79 0.46 C44.69 0.76, 46.6 1.21, 48.43 1.81 C50.27 2.41, 52.08 3.16, 53.8 4.03 C55.52 4.91, 57.19 5.93, 58.75 7.07 C60.31 8.2, 61.8 9.47, 63.16 10.84 C64.53 12.2, 65.8 13.69, 66.93 15.25 C68.07 16.81, 69.09 18.48, 69.97 20.2 C70.84 21.92, 71.59 23.73, 72.19 25.57 C72.79 27.4, 73.24 29.31, 73.54 31.21 C73.85 33.12, 73.92 36.04, 74 37 C74.08 37.96, 74.08 36.04, 74 37" stroke="#000" stroke-width="18" fill="none"></path></g><g stroke-linecap="round" transform="translate(69.87364818521883 204.4579720328723) rotate(0 20.748581206869233 20.748581206869204)"><path d="M41.5 20.75 C41.5 21.95, 41.39 23.17, 41.18 24.35 C40.97 25.53, 40.66 26.72, 40.25 27.85 C39.84 28.97, 39.32 30.08, 38.72 31.12 C38.12 32.16, 37.41 33.17, 36.64 34.09 C35.87 35.01, 35.01 35.87, 34.09 36.64 C33.17 37.41, 32.16 38.12, 31.12 38.72 C30.08 39.32, 28.97 39.84, 27.85 40.25 C26.72 40.66, 25.53 40.97, 24.35 41.18 C23.17 41.39, 21.95 41.5, 20.75 41.5 C19.55 41.5, 18.33 41.39, 17.15 41.18 C15.96 40.97, 14.78 40.66, 13.65 40.25 C12.52 39.84, 11.41 39.32, 10.37 38.72 C9.33 38.12, 8.33 37.41, 7.41 36.64 C6.49 35.87, 5.63 35.01, 4.85 34.09 C4.08 33.17, 3.38 32.16, 2.78 31.12 C2.18 30.08, 1.66 28.97, 1.25 27.85 C0.84 26.72, 0.52 25.53, 0.32 24.35 C0.11 23.17, 0 21.95, 0 20.75 C0 19.55, 0.11 18.33, 0.32 17.15 C0.52 15.96, 0.84 14.78, 1.25 13.65 C1.66 12.52, 2.18 11.41, 2.78 10.37 C3.38 9.33, 4.08 8.33, 4.85 7.41 C5.63 6.49, 6.49 5.63, 7.41 4.85 C8.33 4.08, 9.33 3.38, 10.37 2.78 C11.41 2.18, 12.52 1.66, 13.65 1.25 C14.78 0.84, 15.96 0.52, 17.15 0.32 C18.33 0.11, 19.55 0, 20.75 0 C21.95 0, 23.17 0.11, 24.35 0.32 C25.53 0.52, 26.72 0.84, 27.85 1.25 C28.97 1.66, 30.08 2.18, 31.12 2.78 C32.16 3.38, 33.17 4.08, 34.09 4.85 C35.01 5.63, 35.87 6.49, 36.64 7.41 C37.41 8.33, 38.12 9.33, 38.72 10.37 C39.32 11.41, 39.84 12.52, 40.25 13.65 C40.66 14.78, 40.97 15.96, 41.18 17.15 C41.39 18.33, 41.44 20.15, 41.5 20.75 C41.55 21.35, 41.55 20.15, 41.5 20.75" stroke="#000" stroke-width="18" fill="none"></path></g><g stroke-linecap="round" transform="translate(251.2052684033099 151.42702649739277) rotate(0 25.45293927856494 25.45293927856497)"><path d="M50.91 25.45 C50.91 26.93, 50.78 28.42, 50.52 29.87 C50.26 31.32, 49.87 32.77, 49.37 34.16 C48.87 35.54, 48.23 36.9, 47.5 38.18 C46.76 39.46, 45.9 40.69, 44.95 41.81 C44 42.94, 42.94 44, 41.81 44.95 C40.69 45.9, 39.46 46.76, 38.18 47.5 C36.9 48.23, 35.54 48.87, 34.16 49.37 C32.77 49.87, 31.32 50.26, 29.87 50.52 C28.42 50.78, 26.93 50.91, 25.45 50.91 C23.98 50.91, 22.48 50.78, 21.03 50.52 C19.58 50.26, 18.13 49.87, 16.75 49.37 C15.36 48.87, 14 48.23, 12.73 47.5 C11.45 46.76, 10.22 45.9, 9.09 44.95 C7.96 44, 6.9 42.94, 5.95 41.81 C5.01 40.69, 4.15 39.46, 3.41 38.18 C2.67 36.9, 2.04 35.54, 1.54 34.16 C1.03 32.77, 0.64 31.32, 0.39 29.87 C0.13 28.42, 0 26.93, 0 25.45 C0 23.98, 0.13 22.48, 0.39 21.03 C0.64 19.58, 1.03 18.13, 1.54 16.75 C2.04 15.36, 2.67 14, 3.41 12.73 C4.15 11.45, 5.01 10.22, 5.95 9.09 C6.9 7.96, 7.96 6.9, 9.09 5.95 C10.22 5.01, 11.45 4.15, 12.73 3.41 C14 2.67, 15.36 2.04, 16.75 1.54 C18.13 1.03, 19.58 0.64, 21.03 0.39 C22.48 0.13, 23.98 0, 25.45 0 C26.93 0, 28.42 0.13, 29.87 0.39 C31.32 0.64, 32.77 1.03, 34.16 1.54 C35.54 2.04, 36.9 2.67, 38.18 3.41 C39.46 4.15, 40.69 5.01, 41.81 5.95 C42.94 6.9, 44 7.96, 44.95 9.09 C45.9 10.22, 46.76 11.45, 47.5 12.73 C48.23 14, 48.87 15.36, 49.37 16.75 C49.87 18.13, 50.26 19.58, 50.52 21.03 C50.78 22.48, 50.84 24.72, 50.91 25.45 C50.97 26.19, 50.97 24.72, 50.91 25.45" stroke="#000" stroke-width="18" fill="none"></path></g><g stroke-linecap="round" transform="translate(215.87236334878708 249.52682311278608) rotate(0 25.45293927856494 25.45293927856497)"><path d="M50.91 25.45 C50.91 26.93, 50.78 28.42, 50.52 29.87 C50.26 31.32, 49.87 32.77, 49.37 34.16 C48.87 35.54, 48.23 36.9, 47.5 38.18 C46.76 39.46, 45.9 40.69, 44.95 41.81 C44 42.94, 42.94 44, 41.81 44.95 C40.69 45.9, 39.46 46.76, 38.18 47.5 C36.9 48.23, 35.54 48.87, 34.16 49.37 C32.77 49.87, 31.32 50.26, 29.87 50.52 C28.42 50.78, 26.93 50.91, 25.45 50.91 C23.98 50.91, 22.48 50.78, 21.03 50.52 C19.58 50.26, 18.13 49.87, 16.75 49.37 C15.36 48.87, 14 48.23, 12.73 47.5 C11.45 46.76, 10.22 45.9, 9.09 44.95 C7.96 44, 6.9 42.94, 5.95 41.81 C5.01 40.69, 4.15 39.46, 3.41 38.18 C2.67 36.9, 2.04 35.54, 1.54 34.16 C1.03 32.77, 0.64 31.32, 0.39 29.87 C0.13 28.42, 0 26.93, 0 25.45 C0 23.98, 0.13 22.48, 0.39 21.03 C0.64 19.58, 1.03 18.13, 1.54 16.75 C2.04 15.36, 2.67 14, 3.41 12.73 C4.15 11.45, 5.01 10.22, 5.95 9.09 C6.9 7.96, 7.96 6.9, 9.09 5.95 C10.22 5.01, 11.45 4.15, 12.73 3.41 C14 2.67, 15.36 2.04, 16.75 1.54 C18.13 1.03, 19.58 0.64, 21.03 0.39 C22.48 0.13, 23.98 0, 25.45 0 C26.93 0, 28.42 0.13, 29.87 0.39 C31.32 0.64, 32.77 1.03, 34.16 1.54 C35.54 2.04, 36.9 2.67, 38.18 3.41 C39.46 4.15, 40.69 5.01, 41.81 5.95 C42.94 6.9, 44 7.96, 44.95 9.09 C45.9 10.22, 46.76 11.45, 47.5 12.73 C48.23 14, 48.87 15.36, 49.37 16.75 C49.87 18.13, 50.26 19.58, 50.52 21.03 C50.78 22.48, 50.84 24.72, 50.91 25.45 C50.97 26.19, 50.97 24.72, 50.91 25.45" stroke="#000" stroke-width="18" fill="none"></path></g><g stroke-linecap="round" transform="translate(10 35.956419283042294) rotate(0 25.45293927856494 25.45293927856497)"><path d="M50.91 25.45 C50.91 26.93, 50.78 28.42, 50.52 29.87 C50.26 31.32, 49.87 32.77, 49.37 34.16 C48.87 35.54, 48.23 36.9, 47.5 38.18 C46.76 39.46, 45.9 40.69, 44.95 41.81 C44 42.94, 42.94 44, 41.81 44.95 C40.69 45.9, 39.46 46.76, 38.18 47.5 C36.9 48.23, 35.54 48.87, 34.16 49.37 C32.77 49.87, 31.32 50.26, 29.87 50.52 C28.42 50.78, 26.93 50.91, 25.45 50.91 C23.98 50.91, 22.48 50.78, 21.03 50.52 C19.58 50.26, 18.13 49.87, 16.75 49.37 C15.36 48.87, 14 48.23, 12.73 47.5 C11.45 46.76, 10.22 45.9, 9.09 44.95 C7.96 44, 6.9 42.94, 5.95 41.81 C5.01 40.69, 4.15 39.46, 3.41 38.18 C2.67 36.9, 2.04 35.54, 1.54 34.16 C1.03 32.77, 0.64 31.32, 0.39 29.87 C0.13 28.42, 0 26.93, 0 25.45 C0 23.98, 0.13 22.48, 0.39 21.03 C0.64 19.58, 1.03 18.13, 1.54 16.75 C2.04 15.36, 2.67 14, 3.41 12.73 C4.15 11.45, 5.01 10.22, 5.95 9.09 C6.9 7.96, 7.96 6.9, 9.09 5.95 C10.22 5.01, 11.45 4.15, 12.73 3.41 C14 2.67, 15.36 2.04, 16.75 1.54 C18.13 1.03, 19.58 0.64, 21.03 0.39 C22.48 0.13, 23.98 0, 25.45 0 C26.93 0, 28.42 0.13, 29.87 0.39 C31.32 0.64, 32.77 1.03, 34.16 1.54 C35.54 2.04, 36.9 2.67, 38.18 3.41 C39.46 4.15, 40.69 5.01, 41.81 5.95 C42.94 6.9, 44 7.96, 44.95 9.09 C45.9 10.22, 46.76 11.45, 47.5 12.73 C48.23 14, 48.87 15.36, 49.37 16.75 C49.87 18.13, 50.26 19.58, 50.52 21.03 C50.78 22.48, 50.84 24.72, 50.91 25.45 C50.97 26.19, 50.97 24.72, 50.91 25.45" stroke="#000" stroke-width="18" fill="none"></path></g><g stroke-linecap="round"><g transform="translate(43.47223859661494 85.28427277504744) rotate(0 16.679087708739473 61.58432384765359)"><path d="M0 0 C5.56 20.53, 27.8 102.64, 33.36 123.17 M0 0 C5.56 20.53, 27.8 102.64, 33.36 123.17" stroke="#000" stroke-width="18" fill="none"></path></g></g><mask></mask><g stroke-linecap="round"><g transform="translate(60.578995220963066 60.479475669742556) rotate(0 47.471249632566355 -4.704358071695765)"><path d="M0 0 C15.82 -1.57, 79.12 -7.84, 94.94 -9.41 M0 0 C15.82 -1.57, 79.12 -7.84, 94.94 -9.41" stroke="#000" stroke-width="18" fill="none"></path></g></g><mask></mask><g stroke-linecap="round"><g transform="translate(57.347959936942175 74.07857083294482) rotate(0 97.21030904759067 47.942073616313166)"><path d="M0 0 C32.4 15.98, 162.02 79.9, 194.42 95.88 M0 0 C32.4 15.98, 162.02 79.9, 194.42 95.88" stroke="#000" stroke-width="18" fill="none"></path></g></g><mask></mask><g stroke-linecap="round"><g transform="translate(102.49054895061624 206.7422448079198) rotate(0 43.52457642148153 -61.74415066616287)"><path d="M0 0 C14.51 -20.58, 72.54 -102.91, 87.05 -123.49 M0 0 C14.51 -20.58, 72.54 -102.91, 87.05 -123.49" stroke="#000" stroke-width="18" fill="none"></path></g></g><mask></mask><g stroke-linecap="round"><g transform="translate(109.33325160035554 237.53440673174663) rotate(0 53.45861445108818 14.540743130696)"><path d="M0 0 C17.82 4.85, 89.1 24.23, 106.92 29.08 M0 0 C17.82 4.85, 89.1 24.23, 106.92 29.08" stroke="#000" stroke-width="18" fill="none"></path></g></g><mask></mask><g stroke-linecap="round"><g transform="translate(209.4077778527926 81.265063408076) rotate(0 17.539848048529507 84.32773717530267)"><path d="M0 0 C5.85 28.11, 29.23 140.55, 35.08 168.66 M0 0 C5.85 28.11, 29.23 140.55, 35.08 168.66" stroke="#000" stroke-width="18" fill="none"></path></g></g><mask></mask><g stroke-linecap="round"><g transform="translate(271.84743953166367 149.64844457415762) rotate(0 -22.238783611652707 -40.20087806721831)"><path d="M0 0 C-7.41 -13.4, -37.06 -67, -44.48 -80.4 M0 0 C-7.41 -13.4, -37.06 -67, -44.48 -80.4" stroke="#000" stroke-width="18" fill="none"></path></g></g><mask></mask><g stroke-linecap="round"><g transform="translate(111.2746176461776 219.4754018587588) rotate(0 71.14999127734688 -15.240708524300118)"><path d="M0 0 C23.72 -5.08, 118.58 -25.4, 142.3 -30.48 M0 0 C23.72 -5.08, 118.58 -25.4, 142.3 -30.48" stroke="#000" stroke-width="18" fill="none"></path></g></g><mask></mask><g stroke-linecap="round"><g transform="translate(265.0047368819244 200.11337661598486) rotate(0 -4.276689156087059 26.943141683348472)"><path d="M0 0 C-1.43 8.98, -7.13 44.91, -8.55 53.89 M0 0 C-1.43 8.98, -7.13 44.91, -8.55 53.89" stroke="#000" stroke-width="18" fill="none"></path></g></g><mask></mask></svg>