<svg width="1451" height="1707" viewBox="0 0 1451 1707" fill="none" xmlns="http://www.w3.org/2000/svg">
<path d="M754.933 36.9331C752.267 39.1998 751.467 41.8665 751.867 46.9331C751.867 48.1331 754 51.5998 756.533 54.5331C759.067 57.4665 762.4 63.9998 764 68.9331C767.333 78.9331 768.933 81.7331 770.933 80.5331C771.733 79.9998 772 75.4665 771.333 68.5331C770.667 59.5998 770.933 55.7331 772.8 49.8665C775.067 42.6665 775.067 42.3998 772.4 38.9331C768.933 34.2665 759.333 33.1998 754.933 36.9331Z" fill="white"/>
<path d="M789.867 39.3333C786.667 42.5333 786.533 43.3333 787.333 52.4C788 60 787.6 64 785.333 71.3333C780.267 88.6666 782.667 90.1333 790.933 74.9333C794 69.3333 799.467 61.6 802.933 57.8666C808 52.4 809.333 50.1333 809.333 46.4C809.333 36.6666 797.067 32.2666 789.867 39.3333Z" fill="white"/>
<path d="M721.6 49.7332C717.6 53.9999 717.733 61.3332 721.733 64.9332C723.333 66.3999 727.6 68.6666 731.067 69.8666C734.667 71.1999 741.2 75.4666 745.733 79.3332C754.267 86.3999 759.733 89.9999 760.8 88.9332C761.2 88.6666 757.467 83.0666 752.667 76.5332C747.6 69.7332 743.067 61.8666 742 58.1332C739.2 49.0666 736.8 46.6666 730 46.6666C726 46.6666 723.733 47.4666 721.6 49.7332Z" fill="white"/>
<path d="M817.6 54C816 55.2 813.867 59.0666 812.667 63.0666C811.333 67.7333 808.133 73.0666 803.2 79.2C793.6 90.6666 794.933 93.2 806.267 84.8C816.133 77.6 821.6 74.6666 825.333 74.6666C829.6 74.6666 833.067 72.4 835.333 68.1333C840.4 58.1333 827.067 47.4666 817.6 54Z" fill="white"/>
<path d="M704 75.3332C699.867 79.7332 699.733 86.9332 703.733 91.0665C706.267 93.4665 708.267 93.9998 717.733 94.1332C723.867 94.2665 733.067 95.5998 738.533 97.1998C744 98.6665 748.933 99.5998 749.6 99.1998C752.133 97.5998 750 95.5998 738.8 90.1332C732.267 86.7998 725.733 82.3998 724.133 80.3998C718.933 73.3332 716.933 71.9998 712 71.9998C708.533 71.9998 706.267 72.9332 704 75.3332Z" fill="white"/>
<path d="M834.133 81.8666C830.667 85.6 825.467 89.0666 820 91.3333C803.733 98.4 804 101.2 820.667 98.8C827.2 97.7333 835.2 97.4666 839.333 98C850.8 99.3333 857.467 94.2666 856.133 84.6666C855.6 80.2666 849.733 76 844.4 76C840.4 76 838.667 77.0666 834.133 81.8666Z" fill="white"/>
<path d="M800.4 111.6C799.067 112 798.933 114.667 799.467 121.067C800.267 129.733 800.133 130.133 795.733 136C789.2 144.533 788 147.067 786.533 156.267C784.267 170.4 780.133 175.2 766.8 179.2C760 181.2 742.667 182.267 742.667 180.667C742.667 180.267 743.6 178.533 744.667 176.933C745.733 175.333 748 168.533 749.733 162C751.6 155.333 754.267 147.467 755.733 144.4C759.6 136.933 768.4 129.733 777.067 127.067C781.067 125.733 784.667 123.867 785.067 122.8C786.133 120.133 779.733 115.067 772.933 113.2C761.333 110.133 749.467 115.6 735.467 130.667C722.133 145.2 716 161.067 718.667 174.267L720.267 181.467L710.133 197.2C698.8 214.8 696.133 220.667 698.533 223.067C700.533 225.067 704.667 222.8 720.667 211.333C733.733 202 735.867 201.467 745.867 204.8C761.333 210.133 780.933 203.733 793.067 189.733C796.4 185.867 799.6 182.667 800.267 182.667C800.8 182.667 801.867 185.2 802.8 188.267C806 200.133 800.933 215.733 790.267 226.8C787.2 230.133 775.867 238.667 765.333 246C729.067 270.933 712.667 286.933 702.267 307.867L696.667 319.067V334.533C696.667 349.067 696.933 350.533 700.8 358.667C703.067 363.467 707.467 371.2 710.4 375.867C713.467 380.533 716 385.467 716 386.667C716 388 714.4 392.533 712.4 396.8C709.2 403.6 708.8 406.4 708.667 417.333C708.667 428.533 709.067 430.8 712.267 436.667C716.533 444.533 720.933 449.733 730.267 457.2C735.867 461.733 737.733 464.4 740.667 472C742.533 477.067 745.867 483.467 747.867 486.267C754.933 496 770.4 501.467 784 499.067C792.8 497.467 792.133 494.267 781.333 487.733C776.533 484.933 768.8 478.533 764 473.6C750.133 459.2 744 444.267 744 424.533C744 387.6 766 358.267 798.4 351.867C813.733 348.933 838 352.133 856.667 359.733C860.4 361.2 868.4 365.467 874.533 369.2C887.333 376.933 887.333 376.933 913.333 378C960.933 379.867 986.933 386.667 1013.07 404C1023.07 410.533 1032.67 418.533 1070.13 451.2C1088.27 466.933 1068.93 435.6 1046.67 413.2C1034.4 400.8 1018.8 389.067 1004.67 381.733C998.8 378.667 981.467 371.2 966 364.933C921.2 346.8 900.267 336.8 885.6 326.267C882.533 324 869.067 310.267 855.867 295.6L831.733 269.2L838.533 258.133C855.2 230.933 860.667 213.2 859.733 190.133C858.533 164.533 850.133 144.933 832.667 127.2C825.6 120 821.6 117.067 816 115.067C806.933 111.733 802.533 110.8 800.4 111.6Z" fill="white"/>
<path d="M759.867 154.4C756.533 157.2 755.867 163.867 758.667 167.2C760.4 169.333 767.6 170 770.133 168.267C771.867 167.067 774.667 162.133 774.667 160C774.667 157.6 768.267 152 765.6 152C764.133 152 761.6 153.067 759.867 154.4Z" fill="white"/>
<path d="M888.667 300.933C881.333 301.6 878.667 303.067 878.667 306.8C878.667 311.467 918.933 329.6 944.667 336.533C952 338.4 962.533 341.2 968 342.667C983.733 346.933 1002.93 357.067 1020.53 370.533C1040.93 386.133 1043.2 385.333 1029.47 367.467C1009.2 340.933 976.8 317.467 947.067 307.6C927.333 301.067 910.933 299.333 888.667 300.933Z" fill="white"/>
<path d="M850.267 371.6C848.4 373.467 849.467 383.467 852 387.6C856.4 394.933 868.267 400.8 885.2 404C889.067 404.667 902 406.267 913.867 407.333C947.2 410.4 955.867 414 972.667 432.667C986.133 447.333 990.4 447.6 983.867 433.333C979.733 424 971.733 414.4 963.733 408.8C951.333 400.4 941.6 397.733 906.8 393.2C865.467 388 862.667 387.067 856.533 376.533C853.067 370.8 852 369.867 850.267 371.6Z" fill="white"/>
<path d="M1081.33 431.733C1079.33 432.4 1077.33 434.533 1077.33 436.133C1077.33 436.533 1080.27 440.667 1084 445.2C1087.6 449.733 1091.33 455.867 1092.13 458.8C1094.27 465.867 1100.53 471.067 1111.07 474.4C1120 477.333 1140.13 488.133 1153.6 497.467C1160.8 502.267 1165.33 503.467 1165.33 500.267C1165.33 498.4 1131.87 462.667 1122.67 454.667C1102.27 437.067 1088.27 429.2 1081.33 431.733Z" fill="white"/>
<path d="M950.667 446.267C949.6 446.667 946.267 449.333 943.333 452.133C936.4 458.667 932 460.267 925.2 458.8C919.2 457.467 918.4 458.267 916.8 466.933C915.6 473.467 910.8 479.067 903.2 482.667C894.667 486.8 885.2 485.867 875.867 480.133C872 477.733 868.267 476.133 867.333 476.533C866.4 476.8 863.867 480.4 861.6 484.4C854.4 497.067 839.867 501.867 826.8 495.867C822.933 494.267 820.4 493.733 819.6 494.533C817.467 496.667 821.2 503.6 826.8 508.533C839.733 519.6 860.933 518.267 870.133 505.867C872.133 502.933 874.267 500.133 874.8 499.6C875.2 498.933 879.067 499.467 883.333 500.8C900.133 505.6 914.267 500.933 923.2 487.467C928.267 479.867 928.533 479.733 933.6 480.4C940.667 481.333 946.267 479.467 951.2 474.8C956.667 469.467 962.667 467.2 974 466C979.2 465.467 984.533 464.4 986 463.6C990.533 461.333 992 457.733 989.067 456.667C988.133 456.4 980.8 453.733 972.8 450.8C958.667 445.467 954.933 444.8 950.667 446.267Z" fill="white"/>
<path d="M1007.07 463.333C996.267 466.267 986.8 471.6 978.4 479.733C970.267 487.467 969.467 489.333 972.8 492C974.533 493.467 976.4 492.933 985.067 488.4C1013.47 473.333 1034.13 472.4 1058.93 485.333C1064.67 488.267 1069.87 490.667 1070.67 490.667C1076.53 490.667 1062.27 475.067 1050.8 468.8C1037.07 461.467 1021.47 459.467 1007.07 463.333Z" fill="white"/>
<path d="M1017.33 487.333C1000 497.067 990.533 499.733 972 500.133C959.467 500.4 955.333 501.467 955.333 504.667C955.333 509.467 961.867 511.333 979.333 511.2C993.6 511.2 996.4 510.8 1004.67 507.467C1023.07 500.267 1021.47 500.267 1029.33 506.533C1037.2 512.8 1041.2 514.133 1045.2 512C1049.07 510 1048.8 508.933 1042.4 500.933C1039.2 497.067 1035.2 492 1033.33 489.6C1028.67 483.733 1024.67 483.2 1017.33 487.333Z" fill="white"/>
<path d="M1110.67 487.067C1110.67 488 1113.73 491.733 1117.47 495.333C1126.67 504.4 1151.2 531.733 1167.87 551.733C1199.33 589.333 1217.6 602 1242.67 603.6C1254.13 604.4 1260 602.667 1260 598.8C1260 596.667 1258.8 596 1252.4 595.333C1235.33 593.2 1220.53 585.867 1207.87 572.933C1204.27 569.2 1196.4 559.067 1190.4 550.133C1161.2 506.933 1151.6 497.467 1127.6 489.2C1115.73 485.067 1110.67 484.4 1110.67 487.067Z" fill="white"/>
<path d="M1058.67 504.267C1058.67 505.2 1062.53 513.733 1067.33 523.333C1080 548.4 1082.27 561.333 1077.47 580.4C1071.33 604.267 1060.8 614.667 1042.8 614.933C1038.27 614.933 1034.67 615.467 1034.67 616.133C1034.67 618.667 1043.2 623.867 1048.53 624.667C1058.53 626.267 1067.87 622.533 1078 613.2C1105.73 587.2 1102.53 545.6 1070.13 511.067C1062.67 503.067 1058.67 500.667 1058.67 504.267Z" fill="white"/>
<path d="M922.267 507.467C917.867 511.867 937.733 521.867 960.667 526.933C972.533 529.467 1016.8 529.333 1021.87 526.667C1027.2 524 1029.07 520.667 1027.2 517.6C1024.4 513.2 1019.47 512.667 1000.27 515.067C971.2 518.667 958.267 517.733 936 510.133C925.467 506.533 923.6 506.133 922.267 507.467Z" fill="white"/>
<path d="M779.467 510.133C778.533 512.667 780.8 516.133 787.467 521.867C800.4 532.933 815.867 540.8 834.933 546C847.333 549.467 854 554.933 864.933 570.667C874 583.867 883.867 594.533 892.533 600.667C895.6 602.933 896.933 605.867 900.533 619.333C903.067 628.133 906.667 639.467 908.8 644.667C912 652.4 912.667 655.867 912.667 665.333C912.667 676 912.533 676.667 909.2 678.533C906 680.267 904.667 680 891.2 675.6C873.2 669.733 865.067 668.533 858 670.933C853.733 672.4 852.667 673.333 852.667 676C852.667 678.4 853.6 679.6 856 680.267C857.867 680.8 862 682 865.333 682.933C873.2 685.2 874.133 688.667 867.067 690.533C864.267 691.2 859.067 692.133 855.333 692.667C851.733 693.2 847.333 694.4 845.733 695.467C839.867 699.2 843.2 705.333 850.933 705.333C852.667 705.333 860 703.2 867.333 700.667C874.667 698.133 881.467 696 882.4 696C885.867 696 883.067 699.333 875.2 704.8C866.133 711.067 862.533 716.133 864.8 719.6C868.133 724.933 876.133 722.267 892.133 710.533C906.267 700.133 912 698 926 698C936.533 698 938.8 698.533 945.2 701.733C951.333 705.067 952.667 705.333 954.267 703.733C956.933 701.067 955.467 698.8 946.667 691.733C936.667 683.733 932.8 675.867 933.733 666.267C934.267 660.267 933.733 658 929.333 648.667C923.467 636.267 919.333 619.333 920.533 612.667C921.867 606 926.8 602.933 932.533 605.2C946 610.8 947.067 610.933 951.6 608.8C956.4 606.533 960.4 600 959.733 595.6C959.2 591.6 952.4 589.467 939.733 589.467C927.2 589.333 916.267 586 906.4 579.6C896.667 573.067 877.067 552.667 868.133 539.6C864.133 533.867 859.2 528.267 857.067 527.2C854.667 526 848.4 524.933 841.6 524.667C828.4 524.267 818.533 521.333 802.533 513.2C791.067 507.467 781.067 506.133 779.467 510.133Z" fill="white"/>
<path d="M1112 510.133C1112 511.2 1116.4 518.267 1121.73 525.733C1142.27 554.267 1158.53 581.067 1163.47 594.4C1169.73 610.933 1172.13 612.267 1183.07 605.333C1190.27 600.8 1191.87 596.8 1188.8 590.933C1183.87 581.467 1139.73 530.133 1123.87 515.467C1115.73 508 1112 506.267 1112 510.133Z" fill="white"/>
<path d="M1081.33 511.2C1081.33 512.267 1086.4 522.133 1092.53 532.933C1098.8 543.733 1105.47 557.333 1107.33 563.067C1113.47 581.6 1113.2 604.4 1106.53 623.733C1101.07 639.733 1090.93 646.667 1073.07 646.667C1063.73 646.667 1062.67 646.933 1062.67 649.2C1062.67 653.2 1073.07 661.2 1081.2 663.6C1089.33 665.867 1100.93 665.333 1108.4 662.133C1114.53 659.6 1122.4 652.533 1125.2 646.8C1136.4 624.667 1128.53 574.4 1108.67 541.6C1099.07 525.6 1081.33 505.867 1081.33 511.2Z" fill="white"/>
<path d="M889.333 518.933C889.467 522.8 901.333 533.067 913.467 539.867C932.667 550.533 952.8 555.333 987.333 557.2C1033.87 559.867 1057.73 553.733 1052.13 540.4C1051.33 538.267 1048.67 535.333 1046.27 534C1040 530.267 1019.87 530.667 990 535.333C946.8 541.867 922.667 538.133 897.733 521.2C891.733 517.067 889.333 516.4 889.333 518.933Z" fill="white"/>
<path d="M871.2 526.933C873.333 537.333 886 551.867 903.333 563.333C922.667 576.133 943.067 584.267 965.333 588.133C979.067 590.4 1005.87 590.533 1012.67 588.133C1023.07 584.667 1026.8 578.267 1023.47 570.133C1022 566.667 1020.13 565.067 1015.47 563.333C1009.87 561.2 1006.93 561.067 988.933 562.133C977.733 562.8 959.733 563.333 948.667 563.2C931.733 563.067 927.333 562.533 920 560.133C904.4 554.667 891.733 545.2 880 530C873.467 521.467 869.867 520.267 871.2 526.933Z" fill="white"/>
<path d="M1110.13 529.6C1111.33 532 1115.6 539.6 1119.6 546.4C1133.73 570.4 1142.53 596.4 1145.47 622.4C1147.33 639.2 1145.2 670.4 1141.33 683.2C1136.67 698.133 1125.33 710.667 1109.33 718.667C1096.8 724.933 1095.33 729.333 1104.4 733.333C1111.07 736.4 1123.47 736.8 1129.87 734.133C1150.4 725.6 1164.53 691.333 1164.53 650.667C1164.4 623.6 1159.07 601.6 1146 575.333C1138.67 560.533 1126.67 542.667 1116.53 531.467C1110 524.133 1106.93 523.333 1110.13 529.6Z" fill="white"/>
<path d="M1206 606.667C1205.47 607.467 1208 612.267 1211.47 617.333C1216.27 624.4 1217.87 628.133 1218.4 633.067C1220.53 656.533 1197.47 665.333 1181.6 647.2C1178.53 643.867 1175.47 638.267 1174.13 634C1170.13 621.467 1166 623.067 1167.33 636.667C1168.53 647.2 1172 657.067 1178.93 668.4C1184.13 677.067 1184.4 678.133 1184.27 686.8C1183.87 701.2 1189.07 708 1200.67 708C1209.6 708 1218.67 700.533 1222 690.533C1223.6 685.867 1226 682.667 1230.8 678.533C1240.67 670.267 1243.07 664.667 1242.4 651.467C1241.33 632.667 1231.07 616.4 1214.93 608.133C1208.8 604.933 1207.2 604.667 1206 606.667Z" fill="white"/>
<path d="M1279.33 612.933C1278 620.267 1276.27 622.667 1271.07 624.933C1264.93 627.467 1258 626.267 1246.27 620.933C1234 615.467 1232.93 617.067 1241.2 628.933C1249.07 640 1256.4 646.267 1264.93 648.8C1280.93 653.6 1293.33 644 1293.33 626.667C1293.33 619.467 1292 615.867 1287.6 610.933C1283.47 606.4 1280.4 607.067 1279.33 612.933Z" fill="white"/>
<path d="M1182.13 614.667C1175.47 622.667 1176.4 633.333 1184.4 640.933C1190 646.267 1193.6 648 1199.07 648C1206.8 648 1209.73 644.4 1210.4 634.533C1210.8 627.2 1210.4 625.333 1207.73 621.333C1200.27 610.4 1188.4 607.333 1182.13 614.667Z" fill="white"/>
<path d="M943.867 619.467C942.533 621.2 942.8 622.667 945.867 628.933C947.867 632.933 949.2 636.533 949.067 636.8C948.8 637.067 945.733 636.133 942.267 634.933C937.467 633.2 935.733 633.067 934.4 634.4C933.2 635.6 933.6 636.8 936.267 639.6C941.2 644.8 942.933 650 941.6 655.2C939.867 661.2 941.6 664.4 949.6 670.533C953.467 673.467 958.133 677.733 959.733 680C965.867 688.133 971.467 683.467 970 671.6C969.2 665.467 969.6 664.133 972.533 660C980.4 649.2 980.4 646.267 972 643.067C968.133 641.467 966.4 640 965.867 637.467C964.267 629.6 960.933 622.533 957.733 620C953.6 616.8 946.4 616.533 943.867 619.467Z" fill="white"/>
<path d="M1251.2 657.867C1246.13 662.933 1245.2 668.8 1248.53 676.4C1252.13 684.933 1263.33 691.6 1271.6 690C1285.07 687.467 1284 664.8 1270.13 656.667C1262 652 1256.8 652.267 1251.2 657.867Z" fill="white"/>
<path d="M1284.8 658.4C1284.53 658.933 1286.27 662.533 1288.67 666.533C1296.53 678.933 1296 687.867 1286.8 696.933C1279.33 704.4 1270 704 1258.67 695.867C1248.93 688.8 1245.6 692.533 1251.07 704.533C1257.87 719.333 1269.47 727.6 1285.6 729.067C1300.27 730.4 1312.4 722.133 1316.53 707.867C1322.67 687.6 1315.2 671.067 1295.73 661.2C1287.73 657.2 1285.87 656.667 1284.8 658.4Z" fill="white"/>
<path d="M1236.13 706C1236.13 724.4 1237.87 742.4 1239.87 744.4C1241.6 746.133 1258.8 742.667 1259.6 740.4C1260 739.467 1258.4 735.867 1256.13 732.267C1250.93 724.133 1244.8 710.667 1242.13 701.2C1240.93 697.067 1239.07 692.667 1238 691.2C1236.27 688.933 1236.13 690.667 1236.13 706Z" fill="white"/>
<path d="M1172.93 698.267C1167.2 704.8 1166 725.733 1170.53 740.133C1177.33 761.867 1193.33 771.333 1210.4 764C1218.53 760.533 1224.4 754.267 1229.2 744C1232.27 737.6 1232.67 734.933 1232.67 722.667C1232.67 714.933 1232.27 707.067 1231.6 704.933C1230.13 699.467 1226.27 700.267 1223.33 706.8C1219.47 715.2 1213.47 719.067 1202.93 719.733C1196.27 720.267 1193.07 719.733 1189.73 718C1185.33 715.6 1180 706.8 1180 701.867C1180 699.333 1177.73 696 1176 696C1175.47 696 1174.13 697.067 1172.93 698.267Z" fill="white"/>
<path d="M1331.6 701.2C1320.53 703.467 1321.2 709.2 1333.33 716.8C1351.87 728.667 1359.73 738.4 1372.13 765.2C1381.47 785.333 1383.33 785.067 1382.27 764.267C1380.67 732.667 1370.93 711.467 1354.67 703.733C1348.8 700.933 1338.27 699.867 1331.6 701.2Z" fill="white"/>
<path d="M1322.27 726.267C1320.27 728.267 1321.73 730.933 1329.73 739.6C1348.53 760.133 1360.93 795.467 1363.33 835.333C1364.53 855.333 1369.2 875.6 1377.33 895.467C1380.93 904.667 1384 912.8 1384 913.467C1384 914.267 1382.13 912.933 1379.73 910.533C1376 906.533 1375.47 906.267 1374.93 908.533C1374.67 909.867 1375.73 915.6 1377.47 921.2C1381.6 934.8 1381.6 949.2 1377.73 956.8C1374.27 963.333 1365.87 971.067 1359.07 974.133C1352.67 976.933 1334.67 977.333 1327.47 974.8C1320.93 972.533 1312.67 965.067 1308.93 958.133C1306.4 953.467 1306 950.533 1306 938C1306.13 925.067 1306.53 922.267 1309.73 914.4C1314.67 902.667 1313.07 900 1303.73 904.8C1286.8 913.6 1276.13 935.333 1277.73 957.6C1278.67 968.4 1283.6 985.467 1288.27 993.333C1305.6 1022.4 1344.13 1030.53 1373.87 1011.47C1383.6 1005.2 1393.87 993.333 1397.47 984.267C1402.13 972.4 1401.73 956.267 1396.27 940.8C1392 928.667 1391.47 924.533 1395.07 931.6C1400.13 941.2 1414.67 955.333 1416.53 952.267C1416.93 951.6 1415.07 947.867 1412.4 943.867C1402.4 929.067 1398.53 911.067 1395.33 865.067C1393.2 834.8 1391.6 825.2 1386 809.333C1377.87 786.8 1365.07 766 1344.67 742.667C1332.27 728.533 1325.2 723.333 1322.27 726.267Z" fill="white"/>
<path d="M1325.33 742C1325.33 743.6 1332.67 757.333 1333.47 757.333C1336.13 757.333 1335.87 754 1332.8 748.8C1330 744 1325.33 739.733 1325.33 742Z" fill="white"/>
<path d="M1302.67 751.333C1302.67 753.067 1303.33 760.667 1304.27 768C1306.93 791.6 1301.33 833.733 1290.53 871.733C1286.27 886.8 1285.47 891.333 1286.8 892.8C1289.33 896 1291.47 894.933 1299.87 886.533C1309.6 876.8 1317.73 861.333 1320.8 846.667C1323.47 834.133 1322.67 802.133 1319.33 790C1314 770.267 1305.47 748 1303.33 748C1302.93 748 1302.67 749.467 1302.67 751.333Z" fill="white"/>
<path d="M1318.67 749.6C1318.67 750.933 1320.13 756.267 1321.87 761.6C1330.13 786.4 1334.27 822.4 1332.8 858.8C1332 878.4 1332.13 881.2 1334.13 882.8C1337.07 885.2 1354 886.133 1356.67 884C1362.13 879.467 1354.53 832.4 1342.8 797.2C1334.53 772.667 1318.8 741.6 1318.67 749.6Z" fill="white"/>
<path d="M1256.27 754.133C1253.87 755.733 1252.4 755.867 1248.8 754.667C1246.4 753.867 1243.47 753.6 1242.4 754C1236.8 756.133 1233.87 774.667 1237.87 782.4C1241.33 788.933 1246.13 792.4 1252.93 792.933C1264.8 794 1272 785.867 1272 771.333C1272 763.467 1270.8 760 1266.27 754.933C1263.07 751.467 1260.4 751.2 1256.27 754.133Z" fill="white"/>
<path d="M1160.13 758.4C1159.47 759.733 1157.6 766.267 1156 772.8C1127.73 889.467 1083.2 978.133 1021.33 1040.13C994.933 1066.53 972 1083.33 941.2 1098.53C901.467 1118.27 862.667 1126.4 824.933 1122.93C795.867 1120.27 778 1112.67 761.333 1096C739.6 1074.27 730.533 1048.67 735.067 1022.13C740.933 988.533 766.533 965.333 797.867 965.333C814.267 965.333 823.867 972.267 824.933 984.933C826 997.733 817.467 1006.8 804.133 1006.53C792.4 1006.4 786.267 1003.33 779.467 994.267C775.333 988.8 771.067 987.867 767.733 991.6C760 1000.53 758.4 1016.8 764.267 1029.33C768.8 1039.2 773.067 1044 781.6 1048.67C787.867 1052.13 790 1052.67 800 1052.67C809.6 1052.67 812.533 1052 819.333 1048.93C842.8 1038 855.067 1018.8 852.8 996.667C850.267 972.133 824 947.067 795.867 942.4C767.733 937.867 724.8 962.4 706.267 993.467C698.533 1006.53 695.467 1018.13 695.467 1034C695.467 1050.8 698.8 1063.33 708.667 1083.47C728.267 1123.73 758 1149.47 797.333 1160.27C807.333 1162.93 811.733 1163.33 833.333 1163.33C859.333 1163.33 868 1162.13 891.2 1155.2C947.067 1138.53 1007.33 1100.93 1055.33 1052.8C1081.73 1026.27 1097.6 1002.53 1115.33 962.933C1119.47 953.6 1123.33 945.6 1123.73 945.067C1124.27 944.533 1124.4 949.067 1124.27 955.2C1123.6 968.533 1125.47 978.133 1130.53 988.933C1139.87 1008.53 1155.6 1017.6 1174.67 1014.53C1199.2 1010.67 1223.6 986.267 1229.33 959.867C1231.87 948.667 1230.53 930.667 1226.27 918.8C1222.67 908.4 1220.4 905.733 1217.73 908.4C1216.93 909.333 1214 918.133 1211.33 928C1208.67 937.867 1205.2 947.867 1203.87 950.267C1194.53 965.333 1170.53 972.667 1155.87 964.933C1151.33 962.533 1149.07 960.133 1146 954C1142.4 947.067 1142 944.933 1142.13 935.467C1142.27 928.267 1143.33 922 1145.2 916.8C1149.33 905.2 1146.93 904 1138.67 913.333L1132.13 920.667L1135.47 909.333C1148.53 864.8 1159.07 808.933 1162 768.267C1162.93 756 1162.53 753.867 1160.13 758.4Z" fill="white"/>
<path d="M1144.53 764.133C1143.73 765.2 1142 768.933 1140.67 772.667C1130.53 800.4 1114.53 819.867 1097.73 824.8C1087.07 827.867 1082 826.533 1074.53 818.533C1071.07 814.933 1067.33 812 1066.13 812C1064.8 812 1063.07 814 1061.87 816.667C1057.33 827.733 1061.73 840.8 1072.13 846.4C1077.2 849.067 1079.2 849.467 1086.67 848.8C1098.93 847.733 1112.4 840.933 1121.2 831.2C1129.87 821.867 1138.93 803.333 1143.47 786.267C1146.8 773.2 1147.47 760.267 1144.53 764.133Z" fill="white"/>
<path d="M1192.13 776.933C1191.47 778.267 1190.27 784.667 1189.47 791.333C1186 817.6 1178.4 838.4 1164.27 860.133C1153.07 877.467 1153.33 881.2 1165.47 873.6C1179.47 864.667 1191.47 844.667 1196 822.667C1198.93 808.8 1199.6 781.6 1197.33 777.2C1195.6 774 1193.87 774 1192.13 776.933Z" fill="white"/>
<path d="M1280.8 776.267C1280.53 777.2 1279.87 781.2 1279.47 785.067C1277.87 800.533 1268.4 809.333 1253.33 809.333C1240.93 809.333 1235.07 804.133 1230 788.8C1226.4 777.733 1223.73 777.333 1219.07 787.6C1211.6 803.867 1213.73 821.867 1224.93 836.533C1237.87 853.467 1262.4 854.533 1280.4 838.8C1287.07 832.933 1293.33 819.6 1294.27 809.733C1295.47 797.2 1288.93 775.867 1283.6 774.933C1282.4 774.667 1281.07 775.2 1280.8 776.267Z" fill="white"/>
<path d="M1203.07 800.267C1203.33 828 1201.73 836.133 1191.87 857.2C1189.07 863.333 1186.67 869.467 1186.67 870.933C1186.67 873.733 1190.93 875.733 1199.6 876.933C1209.33 878.267 1211.47 874.8 1213.47 853.733C1214.8 838.933 1213.6 816.267 1210 790.933C1208.93 783.467 1208 776.933 1208 776.667C1208 776.267 1206.8 776 1205.33 776C1202.8 776 1202.8 776.933 1203.07 800.267Z" fill="white"/>
<path d="M1023.33 824.533C1006.53 829.867 990.4 844.667 981.467 862.8C972.533 880.933 971.333 896.533 977.333 914.133C985.2 936.8 997.733 946 1020.67 945.733C1036.27 945.6 1059.33 937.067 1077.33 924.933C1086.13 918.933 1100.8 904.4 1107.33 895.333C1113.07 887.2 1121.87 870.8 1121.07 869.867C1120.67 869.6 1118.27 872.4 1115.47 876C1098.93 897.6 1077.33 909.333 1053.87 909.333C1034.4 909.333 1022.27 902.267 1014.8 886.667C1012 880.667 1011.33 877.467 1011.33 868.667C1011.33 859.333 1011.87 857.067 1015.33 850.8C1017.47 846.933 1023.47 839.867 1028.53 835.2C1040.93 823.867 1038.93 819.6 1023.33 824.533Z" fill="white"/>
<path d="M1126.53 837.867C1118.53 849.6 1108.8 860.267 1104 862.8C1098.4 865.867 1088 866.133 1082.8 863.467C1080.8 862.4 1076.53 859.333 1073.33 856.667C1068.8 852.8 1066.67 852 1062.93 852.267C1052 853.2 1050.27 866.667 1059.87 876.267C1065.87 882.267 1077.6 886 1086.27 884.8C1098 883.2 1110.4 874.8 1118.4 862.667C1124.13 854.133 1132.53 835.333 1131.6 832.933C1131.33 832 1129.07 834.267 1126.53 837.867Z" fill="white"/>
<path d="M1277.73 849.6C1276.13 851.6 1273.33 866.8 1273.33 873.867C1273.33 879.733 1275.33 884 1278 884C1281.6 884 1283.07 878.133 1283.2 863.333C1283.33 850.933 1283.07 848.667 1281.2 848.267C1280 848.133 1278.53 848.667 1277.73 849.6Z" fill="white"/>
<path d="M1226 868.933C1221.2 878.933 1220.13 886.533 1223.33 888.8C1228.67 892.8 1233.33 885.2 1233.33 872.533C1233.33 865.333 1232.4 861.333 1230.8 861.333C1230.27 861.333 1228.13 864.8 1226 868.933Z" fill="white"/>
<path d="M1252.67 867.867C1252.27 868.533 1252.53 880 1253.33 893.2C1254.93 923.333 1252.8 974.267 1248.67 1003.33C1246.93 1015.33 1242.27 1036.93 1239.2 1047.07C1236.93 1054.67 1236.4 1058.27 1237.47 1059.47C1238.93 1061.2 1242.93 1062 1257.6 1063.33L1266.53 1064.13L1267.87 1059.07C1270 1050.93 1271.6 993.733 1270.53 964.667C1268.4 910.267 1258.8 858.133 1252.67 867.867Z" fill="white"/>
<path d="M944 893.333C935.867 902 931.6 921.2 934.533 936.267C939.6 962.133 958.933 980 982 980C1008.93 980 1060.27 956.933 1085.07 933.733C1098.67 920.933 1095.33 918.533 1079.07 929.467C1067.07 937.6 1050.27 945.733 1039.2 948.8C1019.2 954.267 991.333 952.133 973.333 943.867C963.333 939.2 958.267 934.8 954.267 927.333C951.733 922.667 951.333 919.867 951.333 906.133C951.333 888.133 950.4 886.533 944 893.333Z" fill="white"/>
<path d="M1173.87 894.8C1167.87 896.533 1156.8 906.933 1153.47 914C1148.27 924.933 1150.8 940.133 1158.8 947.6C1168.67 956.667 1183.07 954.667 1193.73 942.667C1205.33 929.867 1206.93 913.867 1197.6 901.467C1192.27 894.267 1183.87 891.867 1173.87 894.8Z" fill="white"/>
<path d="M1335.33 896C1328 899.067 1319.87 912 1318 923.6C1315.33 940.133 1326.27 957.867 1340.8 960.667C1351.47 962.533 1364.53 954.533 1368.8 943.2C1375.07 926.8 1365.87 901.467 1351.6 896.133C1347.2 894.4 1339.2 894.4 1335.33 896Z" fill="white"/>
<path d="M1064.67 956.133C1050.13 964.8 1028.27 975.467 1014.93 980.667C990.533 990.133 958.133 995.733 938.4 994.133C911.6 991.867 897.067 981.733 894.8 963.333C893.733 954.4 890.8 954.4 887.6 963.333C878.933 988 897.333 1014.8 930.667 1026.13C942 1030 968 1029.73 981.2 1025.6C1009.33 1016.8 1043.07 992.667 1070.4 962.133C1081.6 949.467 1079.6 947.333 1064.67 956.133Z" fill="white"/>
<path d="M1032 1003.6C991.6 1032.13 936.533 1052.53 895.2 1054.4C876.133 1055.2 868.267 1053.07 858.933 1044.67C855.333 1041.33 850.933 1038.67 849.467 1038.67C841.067 1038.67 824.667 1051.2 819.467 1061.6C811.333 1077.87 818.8 1092 839.867 1100.13C845.6 1102.4 851.2 1103.2 863.467 1103.73C908 1105.47 948.533 1089.6 994.667 1052.4C1013.6 1037.2 1053.33 996.133 1053.33 991.867C1053.33 989.067 1049.2 991.333 1032 1003.6Z" fill="white"/>
<path d="M1115.47 1018C1104.67 1038.67 1082.27 1065.87 1044.93 1103.07C1017.47 1130.53 1014.27 1134.67 1021.6 1134.67C1027.07 1134.53 1046.53 1125.73 1058.4 1117.73C1089.47 1097.2 1112.53 1063.6 1123.87 1022.93C1126.4 1013.73 1125.87 1008 1122.27 1008C1121.33 1008 1118.27 1012.53 1115.47 1018Z" fill="white"/>
<path d="M1208 1012.27C1200.93 1023.6 1199.47 1041.73 1204.93 1050.8C1210.13 1059.87 1216 1059.2 1226.4 1048.53C1234.13 1040.67 1235.2 1036.4 1230 1035.33C1228.13 1034.93 1225.2 1034.4 1223.47 1034C1219.47 1033.2 1217.2 1027.73 1216.13 1016.93C1215.2 1006.93 1212.27 1005.33 1208 1012.27Z" fill="white"/>
<path d="M1390.27 1013.07C1387.47 1020.13 1384.4 1035.6 1382.53 1051.47C1380.93 1066.8 1382.53 1085.73 1386.93 1099.87C1390.53 1111.87 1398.93 1127.6 1404.93 1133.73C1413.6 1142.67 1417.2 1143.07 1414.53 1134.53C1413.73 1132 1412.93 1118 1412.67 1103.33C1412.4 1083.33 1411.6 1072.67 1409.47 1060.67C1406 1041.2 1398.8 1012 1397.07 1009.6C1394.67 1006.67 1392.4 1007.87 1390.27 1013.07Z" fill="white"/>
<path d="M1301.2 1031.47C1295.2 1034.67 1294.93 1034.8 1289.2 1032.67C1279.33 1029.07 1278.4 1028.93 1277.2 1030.8C1275.33 1033.73 1275.87 1046.27 1277.87 1051.33C1280.67 1057.73 1285.07 1059.6 1292.93 1057.6C1301.47 1055.2 1306.27 1051.47 1310 1043.87C1314 1036.13 1314.27 1031.2 1310.8 1029.33C1307.73 1027.73 1308.67 1027.47 1301.2 1031.47Z" fill="white"/>
<path d="M1140.53 1036.4C1138.93 1038.67 1134.67 1046.53 1130.93 1053.6C1112.53 1088.67 1100 1103.6 1063.07 1134.93C1050.93 1145.2 1042.67 1153.2 1042.67 1154.53C1042.67 1155.87 1044.93 1158.4 1047.6 1160.13C1051.07 1162.27 1053.33 1165.2 1054.8 1169.33C1058.4 1179.2 1060.4 1179.2 1068.93 1170C1078 1160.13 1095.07 1134.53 1108.13 1111.33C1121.07 1088.13 1145.33 1038.27 1145.33 1034.8C1145.33 1030.8 1143.73 1031.33 1140.53 1036.4Z" fill="white"/>
<path d="M1182.27 1041.07C1177.87 1052 1173.47 1080.4 1175.87 1081.87C1179.07 1083.87 1196 1071.2 1196 1066.8C1196 1063.33 1186.53 1036 1185.33 1036C1184.8 1036 1183.33 1038.27 1182.27 1041.07Z" fill="white"/>
<path d="M1158.8 1051.6C1145.07 1083.07 1114.4 1133.73 1076.13 1187.87C1068.8 1198.4 1062.67 1208.13 1062.67 1209.47C1062.67 1213.33 1068.4 1212.67 1079.47 1207.33C1097.2 1198.8 1114.93 1183.6 1128.13 1165.33C1139.6 1149.73 1151.73 1122.93 1158 1100C1164.8 1074.67 1169.2 1040.27 1165.87 1039.07C1165.07 1038.8 1161.87 1044.4 1158.8 1051.6Z" fill="white"/>
<path d="M1351.73 1040.27C1342.8 1047.47 1333.6 1074.67 1328.67 1109.2C1323.6 1144.53 1313.33 1167.6 1288.53 1198.8C1276.53 1214.27 1278.67 1217.07 1296.13 1208.4C1309.87 1201.6 1325.33 1186 1333.07 1170.93C1346 1146.27 1350.4 1125.47 1352.13 1082C1352.8 1065.07 1353.73 1048.53 1354.13 1044.93C1355.07 1038.13 1354.93 1037.87 1351.73 1040.27Z" fill="white"/>
<path d="M1324.67 1041.07C1324 1041.6 1320.4 1048 1316.8 1055.33C1309.73 1070.13 1301.2 1082.67 1294.53 1088.4C1290.67 1091.73 1290.4 1092.4 1292.27 1094.27C1294.13 1096.13 1295.07 1096.13 1301.6 1094.13C1314.27 1090.53 1323.07 1082.4 1327.47 1070.4C1330.4 1062.67 1330.67 1044.8 1328 1042.13C1326.93 1040.93 1325.47 1040.53 1324.67 1041.07Z" fill="white"/>
<path d="M1368.4 1051.6C1366.53 1058 1367.2 1111.73 1369.07 1122.67C1372.53 1142.13 1376 1154.13 1381.33 1164.8C1386.93 1176.13 1394.53 1184.53 1400.8 1186.13C1409.47 1188.4 1422.13 1180.27 1426.13 1169.87C1429.33 1161.33 1427.73 1156.8 1421.33 1156.67C1415.33 1156.4 1403.6 1149.07 1396.8 1141.2C1384.27 1126.8 1373.33 1089.33 1373.33 1060.8C1373.33 1051.87 1372.53 1048 1370.53 1048C1369.87 1048 1368.93 1049.6 1368.4 1051.6Z" fill="white"/>
<path d="M1234 1070.67C1218 1076 1204.8 1088.53 1201.2 1101.73C1200.4 1104.8 1200 1111.73 1200.27 1117.07C1201.07 1129.73 1208.4 1145.07 1215.87 1150.13C1228.8 1158.67 1251.07 1153.73 1266.93 1138.93C1276.93 1129.6 1279.2 1124.27 1279.2 1110.67C1278.93 1080 1258.93 1062.4 1234 1070.67Z" fill="white"/>
<path d="M1186.53 1087.73C1177.47 1093.6 1163.6 1109.47 1157.6 1121.07C1146.8 1141.73 1140.4 1168.93 1141.73 1188.53C1143.87 1221.47 1164.13 1239.2 1199.33 1239.07C1224.8 1238.93 1241.33 1232.13 1258.67 1214.8C1276.53 1196.93 1286.53 1174.93 1291.33 1143.07C1293.6 1128.53 1293.33 1119.6 1290.53 1117.87C1288.13 1116.4 1286.27 1119.6 1283.07 1130.93C1278.53 1146.93 1270.53 1162.53 1263.6 1168.93C1249.6 1181.87 1222 1185.07 1203.6 1175.73C1190.4 1169.07 1182.8 1157.2 1181.6 1141.07C1180.67 1128.27 1183.2 1117.33 1190.8 1101.47C1199.33 1083.33 1198.4 1080.27 1186.53 1087.73Z" fill="white"/>
<path d="M1358.53 1126.27C1356.27 1132 1355.33 1190.13 1357.2 1206.67C1360.4 1234.53 1365.87 1248 1375.87 1252.4C1386.27 1256.93 1399.07 1252.67 1404.27 1242.53C1409.2 1232.93 1410.4 1203.87 1405.87 1202.13C1404.93 1201.73 1402.4 1202.8 1400.4 1204.53C1391.2 1212.13 1384.93 1212.67 1378.27 1206.27C1369.6 1198.13 1364.93 1178.27 1363.2 1142.93C1362.67 1132.53 1361.73 1123.6 1361.2 1123.2C1360.53 1122.8 1359.33 1124.13 1358.53 1126.27Z" fill="white"/>
<path d="M725.733 1134.27C723.333 1135.2 723.6 1147.47 726.133 1159.07C730.8 1180.4 743.2 1198.8 760.533 1210.4C780.133 1223.47 796.4 1227.33 829.333 1226.27C847.467 1225.87 853.733 1225.07 864.667 1222.13C887.867 1216.13 920.933 1197.73 916.533 1193.33C915.733 1192.53 909.733 1193.47 899.333 1196.27C884.267 1200.27 882 1200.53 858.667 1200.53C835.733 1200.67 833.067 1200.4 820.8 1196.93C790 1188.4 760.267 1169.33 737.867 1144C729.467 1134.53 728.133 1133.33 725.733 1134.27Z" fill="white"/>
<path d="M968.533 1171.2C933.867 1180.27 912.533 1202 908.8 1232C905.867 1256 922.267 1280.4 948.133 1290.8C959.067 1295.2 977.2 1295.87 988.8 1292.27C1000.93 1288.53 1012.93 1281.2 1024.4 1270.67C1036.4 1259.6 1049.47 1243.33 1048.53 1240.67C1048 1239.6 1047.33 1238.67 1046.8 1238.67C1046.4 1238.67 1040 1241.6 1032.67 1245.33C1024.53 1249.47 1015.47 1252.93 1009.33 1254.13C972.533 1261.87 946.133 1241.07 953.867 1210.67C957.6 1196.13 965.333 1186.4 980.933 1176.4C988.8 1171.47 990.133 1168 984.4 1168C982.267 1168.13 975.2 1169.6 968.533 1171.2Z" fill="white"/>
<path d="M1011.87 1171.2C1001.73 1174.13 993.467 1178.8 987.333 1185.47C973.2 1200.67 969.6 1221.47 979.6 1230.93C986.667 1237.47 991.733 1239.2 1004 1239.2C1013.47 1239.33 1016.53 1238.67 1022.8 1235.73C1032.53 1231.33 1039.87 1224.53 1044.8 1215.73C1048.27 1209.33 1048.67 1207.47 1048.67 1196.67C1048.67 1183.47 1046.67 1178.13 1039.6 1172.8C1035.07 1169.47 1020.93 1168.53 1011.87 1171.2Z" fill="white"/>
<path d="M551.333 1183.6C544.8 1184.8 526.8 1189.87 520.667 1192.27C483.067 1206.93 462.533 1229.87 462.267 1257.33C462.133 1284.13 479.067 1310.8 508.4 1330C527.467 1342.4 542.933 1348.53 569.333 1354C633.067 1367.47 707.6 1356.27 773.467 1323.33C791.2 1314.4 794.8 1311.6 792.267 1309.07C791.067 1307.87 788.267 1308 781.067 1309.73C764.133 1313.6 736 1318.4 717.333 1320.53C693.467 1323.33 644.133 1323.33 626 1320.67C583.2 1314.27 555.6 1298.27 536.533 1269.2C524.133 1250.13 522.133 1232.53 530.4 1215.6C533.867 1208.8 537.333 1204.4 546.133 1196.4C552.267 1190.8 557.333 1185.73 557.333 1185.2C557.333 1183.87 554.4 1183.07 551.333 1183.6Z" fill="white"/>
<path d="M709.867 1187.33C706 1193.2 705.2 1200.27 707.333 1208.67C710.133 1219.33 714.8 1226.53 724.8 1235.87C755.333 1264.4 817.067 1271.33 866.667 1251.73C877.6 1247.47 880.4 1245.47 878.933 1243.07C878.267 1242 874.133 1241.87 862.267 1243.07C817.067 1247.2 750 1231.47 730.533 1212C724.533 1206 721.867 1200.4 719.333 1187.6C718.4 1182.8 712.933 1182.53 709.867 1187.33Z" fill="white"/>
<path d="M1120.93 1195.07C1110 1209.07 1092.93 1225.33 1067.87 1245.47C1056.93 1254.27 1048 1262.4 1048 1263.6C1048 1267.6 1064.67 1263.73 1081.2 1255.6C1099.6 1246.67 1114.93 1231.2 1124.13 1212.67C1131.47 1197.6 1134.53 1184 1130.67 1184C1130 1184 1125.73 1188.93 1120.93 1195.07Z" fill="white"/>
<path d="M1339.47 1190.27C1336.4 1199.6 1333.33 1219.07 1333.33 1228.67C1333.33 1241.2 1336.67 1257.87 1343.33 1278.67C1350.4 1300.67 1350.93 1308.13 1346.13 1321.47C1340.27 1338 1325.33 1356 1296.93 1380.67C1280.67 1394.8 1274.13 1403.07 1271.2 1413.07C1267.6 1425.2 1271.2 1442 1279.07 1450.4C1289.07 1461.2 1310.8 1461.6 1320.27 1451.07C1324.8 1446.13 1325.6 1432 1321.33 1432C1320.53 1432 1317.73 1432.93 1315.07 1434C1312.53 1435.07 1308.93 1436 1307.07 1436C1302.53 1436 1297.33 1430.4 1297.33 1425.33C1297.33 1413.47 1309.07 1400.13 1341.6 1375.2C1366.4 1356 1374.27 1341.33 1373.07 1316.8C1372.4 1303.73 1366.93 1286.13 1354.13 1255.2C1346.53 1236.53 1343.73 1221.87 1344.13 1200.8C1344.53 1183.07 1342.93 1179.73 1339.47 1190.27Z" fill="white"/>
<path d="M635.333 1186.13C612.133 1189.47 595.733 1196.4 584.267 1207.73C573.467 1218.27 570 1226 570 1238.67C570 1247.07 570.667 1250 574.133 1257.33C581.2 1272.27 597.2 1285.47 618 1293.47C656.133 1308.4 729.2 1312.53 779.333 1302.53C802.933 1297.87 840 1284 843.333 1278.53C845.733 1274.93 840.933 1274.93 822 1278.8C804.667 1282.4 798.267 1282.93 773.867 1283.6C752 1284.13 742.933 1283.87 732.533 1282.27C693.733 1276 658.267 1258.27 647.2 1239.2C639.333 1225.87 640.267 1214.4 650.267 1198.67C654.667 1191.73 656 1188.8 654.933 1187.73C653.333 1186.13 641.867 1185.2 635.333 1186.13Z" fill="white"/>
<path d="M1127.6 1236.8C1110.53 1253.07 1072.8 1277.73 1022.27 1305.33C1005.73 1314.4 1005.33 1316.8 1020.4 1316.4C1040.4 1316 1066.53 1305.73 1090 1289.07C1112.53 1273.07 1144.67 1237.47 1143.73 1229.47C1143.47 1227.6 1142.4 1225.87 1141.33 1225.73C1140.27 1225.6 1134 1230.53 1127.6 1236.8Z" fill="white"/>
<path d="M1146 1248.4C1138.4 1259.2 1119.07 1280.8 1105.33 1293.73C1068.4 1328.8 1033.47 1351.73 999.2 1363.07C978.933 1369.87 980.933 1373.33 1005.2 1373.33C1020.13 1373.33 1039.2 1370 1052.53 1365.2C1087.73 1352.4 1121.47 1317.47 1144.67 1270C1154.27 1250.53 1156.53 1242.67 1152.53 1242.67C1151.07 1242.67 1148.27 1245.2 1146 1248.4Z" fill="white"/>
<path d="M1165.87 1254.27C1154 1282.8 1126.13 1328.4 1104.13 1354.93C1085.47 1377.47 1065.87 1391.73 1026 1411.87C1015.07 1417.47 1005.6 1422.53 1005.07 1423.33C1003.6 1425.2 1004.93 1426.4 1013.33 1430.67C1022 1435.07 1022.93 1436.8 1022.8 1447.33C1022.8 1452.13 1023.47 1454.93 1024.8 1456.13C1026.53 1457.6 1030.53 1454.13 1051.47 1433.2C1101.33 1383.6 1122.27 1357.6 1143.33 1319.2C1154.67 1298.4 1171.07 1260.67 1171.2 1254.8C1171.33 1248.4 1168.4 1248 1165.87 1254.27Z" fill="white"/>
<path d="M1266.67 1257.2C1248.4 1263.33 1235.07 1271.73 1222.4 1285.2C1211.07 1297.2 1206.4 1306.8 1205.6 1320.13C1204.67 1336.8 1209.87 1351.07 1221.73 1363.6C1237.47 1380.27 1260.8 1383.73 1282.8 1372.67C1290.53 1368.8 1311.07 1348.93 1312.67 1344C1314.4 1338.4 1311.33 1338 1301.47 1342.53C1289.2 1348.13 1274.67 1351.2 1267.2 1349.6C1247.47 1345.33 1237.07 1327.87 1241.2 1305.73C1244.67 1287.07 1256.4 1272.53 1276.27 1262.53C1282 1259.73 1286.67 1256.67 1286.67 1256C1286.67 1253.87 1274.67 1254.67 1266.67 1257.2Z" fill="white"/>
<path d="M1302.27 1259.2C1289.87 1263.73 1276.93 1275.87 1270.53 1288.67C1259.2 1311.6 1264.13 1336.13 1280.53 1339.73C1294.27 1342.67 1307.2 1336.93 1316.93 1323.6C1330.93 1304.53 1334.67 1283.73 1326.8 1268.4C1322.13 1259.2 1312.27 1255.47 1302.27 1259.2Z" fill="white"/>
<path d="M415.2 1270C410.667 1274.8 406.667 1285.33 406.667 1292.13C406.667 1309.33 431.2 1335.07 456.533 1344.67C471.333 1350.27 514.533 1355.47 516.667 1352C518.4 1349.2 514.4 1347.07 498.667 1342.67C479.067 1337.2 470.667 1333.07 461.067 1324.27C447.333 1311.47 438.8 1295.07 436.667 1276.93C435.6 1268.53 432.4 1265.33 425.2 1265.33C420.533 1265.33 418.933 1266.13 415.2 1270Z" fill="white"/>
<path d="M1216 1271.2C1187.87 1282.93 1165.2 1298.67 1149.87 1317.07C1142.93 1325.2 1133.33 1342.27 1133.33 1346.27C1133.33 1349.33 1136 1349.47 1139.87 1346.8C1142 1345.2 1151.87 1340.13 1161.87 1335.2C1183.2 1324.93 1191.07 1318.4 1198.8 1304.8C1207.87 1289.07 1215.87 1277.73 1220.8 1274C1224.93 1270.8 1226.67 1267.87 1224.4 1268C1223.73 1268.13 1220 1269.47 1216 1271.2Z" fill="white"/>
<path d="M878 1274.53C841.733 1288.27 823.333 1297.87 778.667 1326.53C740.4 1351.07 718 1362.27 685.867 1373.07C666.267 1379.6 644.133 1384.67 625.333 1386.8C611.067 1388.4 606.667 1390.27 606.667 1394.8C606.667 1396.13 608.267 1398.4 610.267 1400C615.467 1404.13 617.2 1407.73 617.333 1414.93C617.333 1420.27 617.867 1421.6 620.667 1423.47C623.867 1425.6 624.933 1425.6 635.067 1423.6C649.867 1420.67 660 1417.2 681.333 1407.73C721.6 1390 756.933 1367.73 802 1331.87C831.2 1308.67 854.133 1294 887.333 1277.33C896.933 1272.4 899.867 1269.33 894.4 1269.47C892.8 1269.47 885.333 1271.73 878 1274.53Z" fill="white"/>
<path d="M276 1291.33C252.8 1296.27 232.667 1306.8 214.8 1323.47C202 1335.2 204.267 1336.53 221.467 1327.47C227.6 1324.13 237.467 1319.87 243.333 1317.87C252.667 1314.67 256 1314.13 270 1314.13C285.333 1314.13 286.8 1314.4 302.267 1319.73C311.2 1322.67 328 1329.47 339.6 1334.8C351.2 1340 365.733 1346.4 372 1349.2L383.333 1354H406.667C419.467 1354 434.667 1354.53 440.4 1355.2C449.333 1356.27 450.667 1356.13 450.667 1354.27C450.667 1346.8 396.4 1315.07 363.333 1303.2C330.267 1291.33 296.667 1286.8 276 1291.33Z" fill="white"/>
<path d="M899.333 1297.87C876.933 1307.6 848.133 1321.6 838.267 1327.47C819.6 1338.67 802.133 1355.87 777.333 1387.87C762.4 1407.07 763.2 1408.53 782.133 1396.53C788.667 1392.4 812 1380.13 834 1369.2C857.467 1357.6 877.733 1346.67 882.933 1342.8C892.533 1335.6 905.2 1321.47 916 1306C927.6 1289.07 923.733 1287.2 899.333 1297.87Z" fill="white"/>
<path d="M989.6 1302.53C952.933 1329.73 937.467 1359.2 948.133 1382C951.733 1389.87 967.067 1405.73 970.4 1405.07C973.067 1404.53 972.933 1403.6 969.333 1391.33C965.733 1378.93 965.733 1362.67 969.333 1352C972.667 1342 982.4 1325.6 994.533 1309.47C1003.07 1298.13 1004.67 1294.67 1001.33 1294.67C1000.8 1294.67 995.467 1298.27 989.6 1302.53Z" fill="white"/>
<path d="M946.4 1306.53C931.867 1311.2 918.667 1321.6 911.467 1333.87C903.6 1347.47 902.4 1360.13 908.133 1373.33C911.067 1380.27 920.4 1389.87 923.067 1388.93C924.133 1388.67 924.667 1384.13 924.667 1375.2C924.667 1362.67 924.933 1361.47 929.733 1351.6C935.2 1340.53 942.133 1331.07 955.6 1317.07C967.733 1304.27 964.667 1300.8 946.4 1306.53Z" fill="white"/>
<path d="M258 1351.33C242 1353.6 236.8 1354.93 218 1361.33C190.4 1370.93 162 1385.6 132.533 1405.47C105.733 1423.73 105.867 1427.07 132.933 1415.6C202.8 1385.87 250.267 1378.93 321.333 1387.87C364.4 1393.33 381.333 1392.93 403.067 1385.73C414.667 1381.87 418.667 1378.13 416.133 1373.6C412.267 1366.4 371.467 1357.33 319.733 1352C290.133 1349.07 275.467 1348.8 258 1351.33Z" fill="white"/>
<path d="M1160.53 1364.53C1134.8 1377.2 1118 1388.53 1104 1402.67C1082.13 1424.4 1072.67 1445.07 1070.53 1475.07C1069.07 1497.07 1066.67 1510.27 1060.53 1529.2C1055.33 1545.73 1055.33 1551.2 1060.67 1545.07C1068.8 1535.6 1090.27 1492.4 1105.2 1455.33C1113.6 1434.53 1120.67 1421.07 1128.53 1410.93C1136.53 1400.4 1158.8 1379.33 1174.67 1367.07C1182 1361.47 1188 1356.4 1188 1355.73C1188 1352.53 1178.27 1355.73 1160.53 1364.53Z" fill="white"/>
<path d="M472.8 1360.8C445.067 1366.8 422.4 1379.07 404.533 1397.73C379.2 1424.27 373.333 1454.27 387.6 1483.6C401.6 1512.4 435.467 1529.33 478.933 1529.33C515.333 1529.33 542.4 1518.53 566.667 1494.4C577.067 1484.27 588 1470.13 588 1467.2C588 1464.4 583.867 1464.93 574.533 1469.2C557.067 1477.07 532.4 1482.67 515.333 1482.67C497.867 1482.67 479.733 1475.47 467.733 1463.73C459.067 1455.33 455.467 1447.07 455.467 1436C455.467 1424.67 458.933 1416.93 468.933 1406.53C487.6 1386.93 513.6 1376.13 542.133 1376C551.733 1376 554.667 1375.6 556.133 1373.87C557.6 1372 557.467 1371.47 555.467 1369.87C552 1367.47 534.4 1361.73 524.8 1360.13C513.467 1358.13 483.733 1358.53 472.8 1360.8Z" fill="white"/>
<path d="M775.733 1373.73C764.4 1381.33 749.6 1388.53 725.6 1398.53C701.467 1408.53 689.733 1415.2 676.4 1426.67C661.2 1439.6 650.533 1453.6 633.333 1483.6C608.133 1527.73 596.133 1543.87 567.733 1572.27C542.8 1596.93 519.867 1614.67 499.067 1625.2C477.2 1636.13 501.733 1633.33 536.667 1620.8C553.2 1614.8 581.6 1600.93 594 1592.53C607.867 1583.33 619.067 1572.93 628.533 1560.8C640.133 1545.73 644.267 1538.53 662.533 1500.93C671.333 1482.8 681.333 1463.73 684.933 1458.4C693.467 1445.6 706.933 1432.13 718.933 1424.4C746 1407.07 786.533 1373.47 785.2 1369.6C784.8 1368.53 781.6 1370 775.733 1373.73Z" fill="white"/>
<path d="M1195.07 1373.07C1155.2 1393.73 1121.07 1447.6 1115.87 1497.73C1114.13 1514.93 1109.6 1528.93 1101.33 1542.53C1097.73 1548.53 1094.67 1554.13 1094.67 1554.8C1094.67 1559.07 1104.13 1552.67 1113.33 1542C1127.73 1525.47 1140.8 1499.87 1156 1458.67C1161.2 1444.4 1168 1427.87 1171.07 1422C1177.6 1409.33 1189.2 1393.6 1200.8 1381.2C1205.47 1376.13 1209.33 1371.47 1209.33 1370.67C1209.33 1368.13 1202.13 1369.33 1195.07 1373.07Z" fill="white"/>
<path d="M1218.67 1388.8C1211.07 1393.07 1197.47 1406.27 1190 1416.67C1181.33 1428.67 1173.2 1446.13 1164.27 1471.33C1153.07 1503.2 1149.87 1511.2 1144.4 1522.93C1139.73 1532.93 1139.33 1537.33 1143.07 1537.33C1146.27 1537.33 1167.6 1514 1175.2 1502.4C1184.93 1487.47 1187.73 1481.6 1201.33 1448.13C1207.73 1432.27 1216.4 1412.53 1220.53 1404.13C1227.33 1390.53 1228.8 1385.33 1225.73 1385.33C1225.2 1385.33 1222 1386.93 1218.67 1388.8Z" fill="white"/>
<path d="M1256 1389.6C1248 1395.07 1241.73 1404.93 1235.2 1422.67C1222.53 1457.07 1212 1475.2 1192.67 1496C1178.8 1510.8 1179.6 1512.93 1195.73 1502.93C1222.27 1486.53 1239.2 1470.4 1246.93 1454.67C1251.73 1444.93 1264.13 1400 1264.53 1391.33C1264.67 1386.27 1261.87 1385.6 1256 1389.6Z" fill="white"/>
<path d="M531.733 1392.8C521.467 1395.87 509.333 1405.07 504.4 1413.33C500.667 1419.33 500 1421.87 500 1428.67C500 1444.13 512.133 1457.87 529.067 1461.47C539.2 1463.6 558.933 1462.13 569.6 1458.67C591.2 1451.33 604.667 1436.27 601.467 1422.67C600 1415.87 598.267 1413.2 591.6 1406.93C576.4 1393.07 550.667 1386.93 531.733 1392.8Z" fill="white"/>
<path d="M823.2 1396.8C818.133 1416.8 847.333 1430.8 878 1422.93C883.867 1421.47 894.4 1417.87 901.467 1414.8C908.533 1411.73 916.267 1409.33 918.533 1409.33C923.333 1409.33 925.467 1406.13 922.533 1403.33C921.467 1402.27 916.8 1400.4 912 1399.2C901.733 1396.53 888.533 1397.2 866 1401.33C858 1402.8 848.133 1404 844.133 1404C837.467 1404 836.533 1403.6 831.867 1398.67C825.867 1392.4 824.4 1392.13 823.2 1396.8Z" fill="white"/>
<path d="M250.533 1409.33C215.6 1415.6 178 1431.87 139.067 1457.6C121.733 1468.93 101.467 1483.87 98.6667 1487.33C96.8 1489.6 96.9333 1489.73 100 1489.07C101.867 1488.67 113.6 1483.47 126 1477.6C160.8 1461.2 184.4 1453.07 212.667 1447.73C225.867 1445.33 234.133 1444.93 296 1444.4C334.533 1444 365.733 1443.2 367.067 1442.53C368.267 1441.73 369.333 1440.4 369.333 1439.33C369.333 1433.6 337.867 1416.67 316.667 1411.2C298.267 1406.4 270.933 1405.6 250.533 1409.33Z" fill="white"/>
<path d="M933.333 1416.67C912.933 1421.2 895.867 1430.67 882.533 1444.93C860.8 1467.87 857.867 1501.47 875.333 1528.67C880.533 1536.93 892.267 1544.67 907.333 1549.6C920.267 1553.87 939.6 1553.73 952 1549.47C975.333 1541.33 993.2 1523.6 1005.33 1496.53C1012.13 1481.47 1010.53 1480.53 994.933 1491.2C977.467 1503.07 959.6 1508.13 945.6 1505.2C932 1502.4 920 1494.4 915.067 1484.8C913.867 1482.53 912.667 1477.07 912.267 1472.4C911.733 1465.2 912.133 1463.07 915.2 1456.8C923.2 1440.53 938.933 1432.13 973.333 1425.73C981.333 1424.27 981.2 1421.47 972.667 1418.27C963.733 1414.8 944.8 1414.13 933.333 1416.67Z" fill="white"/>
<path d="M775.867 1421.07C770.933 1422.4 764.533 1425.07 761.467 1427.07C756.8 1430.13 755.867 1431.47 756.267 1434.4C756.667 1437.87 756.933 1438 764.667 1438.13C770.533 1438.13 778.267 1440 793.6 1445.07C819.2 1453.6 831.2 1455.6 842.933 1453.73C854.933 1451.6 865.333 1447.47 871.733 1441.87C878.933 1435.73 879.2 1432.8 872.4 1433.87C860 1435.87 846.4 1436.27 840.4 1434.8C836.933 1433.87 828.133 1430.53 820.667 1427.33C808 1421.87 795.6 1418.53 788.133 1418.8C786.267 1418.8 780.667 1419.87 775.867 1421.07Z" fill="white"/>
<path d="M734.533 1430.93C723.467 1437.6 698 1467.33 686.4 1487.07C678 1501.47 675.6 1508.53 675.6 1519.33C675.733 1530.8 679.467 1542 683.333 1542C685.6 1542 686.133 1540.4 687.467 1529.33C690.667 1503.73 705.333 1475.2 731.2 1444.67C736.667 1438 741.333 1432 741.333 1431.07C741.333 1428.13 739.2 1428.13 734.533 1430.93Z" fill="white"/>
<path d="M976.533 1435.2C946.4 1442.13 930.8 1466.67 947.333 1481.2C954.8 1487.73 963.2 1489.2 976.267 1486.53C993.867 1482.8 1010 1468.93 1012.53 1455.33C1013.73 1448.93 1009.6 1439.6 1004.13 1436.8C998.4 1433.73 986 1433.07 976.533 1435.2Z" fill="white"/>
<path d="M767.2 1459.33C739.333 1465.33 720.267 1488.8 714.133 1524.4C712.267 1534.67 712.8 1538.67 715.867 1538.67C716.267 1538.67 719.733 1534 723.6 1528.27C739.867 1503.87 757.333 1489.47 780 1482C789.6 1478.8 810.8 1478.67 822.133 1481.73C826.667 1482.93 831.333 1484 832.533 1484C836.667 1484 834.533 1480 827.067 1473.87C809.333 1459.33 789.333 1454.53 767.2 1459.33Z" fill="white"/>
<path d="M256.667 1464.13C240.4 1465.87 218 1470.53 205.333 1474.93C188.667 1480.8 174.933 1488.4 156.8 1501.73C131.333 1520.53 113.333 1530.13 83.3333 1541.2C53.8666 1552.13 51.7333 1553.2 56.8 1555.2C63.3333 1557.73 97.6 1554.27 120.667 1548.67C148.8 1541.87 172.933 1532.4 219.333 1510C249.467 1495.33 255.067 1493.07 268.4 1489.2C285.467 1484.53 303.067 1482.67 333.6 1482.67C369.6 1482.67 372 1481.2 348 1473.6C318.267 1464.13 287.467 1460.93 256.667 1464.13Z" fill="white"/>
<path d="M592.533 1479.2C587.333 1483.2 580.533 1489.73 577.333 1493.87C570.933 1502.27 560.133 1511.6 533.333 1531.73C521.6 1540.53 508.4 1552.27 495.467 1565.33C470 1591.2 446.933 1610.67 429.333 1621.47C425.333 1623.87 421.6 1626.53 421.067 1627.2C415.067 1636 456.267 1626.4 484 1612.67C523.867 1592.67 567.467 1552.13 589.6 1514.13C592.667 1508.93 597.867 1498.8 601.067 1491.47C610.133 1470.93 607.6 1467.33 592.533 1479.2Z" fill="white"/>
<path d="M800 1496C783.467 1498 759.867 1509.07 746.933 1520.67C742.533 1524.67 734.533 1534.4 729.2 1542.27C706.267 1576.27 681.867 1591.73 665.333 1582.8C660 1580 653.333 1568.67 653.333 1562.4C653.333 1556.67 657.067 1549.73 662.267 1545.6C667.6 1541.2 668.133 1537.33 663.333 1537.33C654.667 1537.33 643.467 1545.33 638.267 1555.33C632.133 1566.93 636.667 1583.73 649.2 1595.87C658 1604.4 665.2 1607.07 676.933 1606.4C696.267 1605.33 713.467 1591.87 753.6 1546.4C782 1514.27 795.067 1506.67 822.267 1506.67C833.333 1506.67 834.667 1506.4 834.667 1504.27C834.667 1501.33 827.467 1497.6 819.6 1496.67C808.667 1495.2 807.2 1495.07 800 1496Z" fill="white"/>
<path d="M1034.93 1498.93C1034.27 1500.67 1031.47 1509.2 1028.53 1518C1022.8 1536 1013.33 1555.73 1003.33 1570.67C999.733 1576.13 988.533 1589.07 978.533 1599.33C960.667 1617.73 954.933 1624.93 949.6 1635.33C945.467 1643.6 941.333 1657.2 941.333 1662.53L941.467 1667.33L945.6 1662C954 1651.33 966.4 1640.27 988 1624C1029.2 1593.2 1040.93 1578.13 1044.93 1550.53C1046.67 1539.07 1046.8 1534.4 1045.47 1523.33C1043.47 1505.6 1041.07 1496.8 1038.27 1496.27C1036.93 1496 1035.6 1497.07 1034.93 1498.93Z" fill="white"/>
<path d="M315.067 1508.53C303.2 1510.8 298.267 1512.4 262 1526C200.8 1549.07 175.6 1555.87 140.8 1559.2C128 1560.4 124.667 1561.07 124.667 1562.67C124.667 1565.07 131.467 1566.93 156.667 1571.33C216 1581.47 248 1578.4 297.333 1558C346.533 1537.6 360.533 1532.93 380.4 1530.53C401.6 1528 403.333 1527.47 403.333 1524.67C403.333 1522.67 400.8 1521.33 389.867 1517.87C361.467 1508.67 333.067 1505.07 315.067 1508.53Z" fill="white"/>
<path d="M817.067 1521.33C806.267 1523.2 793.867 1527.87 785.067 1533.6C780 1536.93 765.2 1550.53 747.333 1568.53C716.933 1599.07 710 1604.67 694.8 1609.73C679.733 1614.93 663.467 1614.13 629.333 1606.8C613.333 1603.33 603.867 1603.33 593.067 1606.67C578.133 1611.33 568 1623.07 565.867 1638.4C563.867 1653.73 569.733 1657.33 574.667 1643.87C580.533 1627.73 594.4 1617.33 610 1617.33C619.867 1617.33 627.867 1621.07 648.533 1635.33C673.6 1652.67 688.533 1654.8 710 1644.13C725.2 1636.67 741.2 1622.67 777.867 1584.8C809.867 1551.73 820.267 1542.8 833.467 1536.8C839.867 1533.87 844 1532.67 856.4 1530C861.333 1529.07 860.933 1525.87 855.733 1524.13C844.133 1520.4 828.933 1519.33 817.067 1521.33Z" fill="white"/>
<path d="M387.867 1539.33C372.933 1541.73 362.133 1545.47 347.333 1553.33C314.4 1570.93 277.733 1580.67 231.467 1584.13C198.933 1586.53 161.333 1582.8 122.533 1573.33C84.1333 1564 46.6666 1562.67 27.7333 1570.27C17.8666 1574.27 21.2 1575.6 42.4 1576.4C63.4666 1577.07 68.6666 1578.27 125.333 1596C172.8 1610.8 214.4 1617.07 255.333 1615.6C301.067 1613.87 335.867 1605.2 370.667 1587.07C379.867 1582.27 394.667 1574.4 403.733 1569.73C412.8 1564.93 427.733 1558 437.067 1554.13C447.6 1549.87 454 1546.53 454 1545.33C454 1542.8 445.467 1540.4 430 1538.67C414 1536.93 402.267 1537.07 387.867 1539.33Z" fill="white"/>
<path d="M990.533 1542.53C987.067 1544.67 974.533 1551.73 962.533 1558.27C941.467 1569.73 940.667 1570.27 936.133 1577.73C928.8 1589.6 920.133 1600.8 908.133 1613.73C895.2 1627.6 889.333 1636.4 889.333 1641.73V1645.6L896.267 1639.47C900 1636.27 911.6 1628.93 921.867 1623.2C954.933 1605.07 961.467 1601.07 969.333 1593.87C978.667 1585.2 988.8 1570.67 996 1555.87C1004 1539.47 1002.13 1535.2 990.533 1542.53Z" fill="white"/>
<path d="M465.333 1551.87C424.667 1566.27 409.2 1573.6 382.4 1591.6C353.467 1610.93 333.467 1620.13 303.467 1628C287.333 1632.13 276.267 1634.13 258.267 1635.87C246.533 1637.07 244 1637.73 245.867 1639.6C247.6 1641.33 302.133 1641.73 322.4 1640.13C379.333 1635.6 409.2 1624.27 447.733 1592.4C463.733 1579.2 497.467 1546.53 496.533 1545.2C494.933 1542.67 486.533 1544.4 465.333 1551.87Z" fill="white"/>
<path d="M853.6 1552C851.2 1553.47 841.2 1561.47 831.6 1569.6C809.733 1587.87 798.267 1596.13 785.067 1602.8C777.6 1606.53 774.667 1608.8 774.667 1610.53C774.667 1613.6 777.067 1614.67 787.333 1615.6C811.467 1617.73 836 1603.47 861.6 1572.53C869.333 1563.07 875.867 1554.67 875.867 1553.73C876.267 1548.8 860.667 1547.73 853.6 1552Z" fill="white"/>
<path d="M886.667 1588.93C873.467 1602.13 861.067 1610.8 840.667 1620.67C812 1634.67 786.133 1641.33 760.667 1641.33C750.667 1641.33 744.667 1642 738.533 1644C726.267 1647.87 716.667 1653.47 716.667 1656.67C716.667 1658.93 718.933 1659.87 734 1663.6C763.6 1670.93 775.333 1672.4 795.733 1671.6C816.133 1670.8 825.067 1668.8 839.867 1661.73C852.267 1655.87 867.6 1641.47 878.667 1625.07C886.533 1613.87 900.533 1586.4 901.6 1580.67C902.533 1575.33 897.733 1577.87 886.667 1588.93Z" fill="white"/>
</svg>
