<?xml version="1.0" encoding="UTF-8" standalone="no"?>
<svg
   xmlns:svg="http://www.w3.org/2000/svg"
   xmlns="http://www.w3.org/2000/svg"
   version="1.1"
   overflow="visible"
   viewBox="0 0 96 96"
   height="128"
   width="128">
  <title>Sense of smell</title>
  <g transform="matrix(0.25424508,0,0,0.25424508,-29.798994,-52.693201)">
    <path
       d="m 199.0563,411.9508 c -9.6216,11.8879 -14.92,27.7206 -14.92,44.5795 0,16.859 5.2984,32.6917 14.92,44.5802 -25.3097,-0.6764 -32.4297,-21.941 -32.4297,-44.5802 0,-22.6389 7.1199,-43.9033 32.4297,-44.5795 z"
       fill="#808080"
       style="stroke:none" />
    <path
       d="m 446.0886,531.5397 c 16.2362,-20.0523 25.1778,-46.7488 25.1778,-75.171 0,-28.4223 -8.9416,-55.1196 -25.1778,-75.1719 31.9237,8.8366 42.6875,40.9679 42.6875,75.1719 0,34.2037 -10.7636,66.3341 -42.6875,75.171 z"
       fill="#c0c0c0"
       style="stroke:none" />
    <path
       d="m 165.9114,531.7021 c -31.9238,-8.8369 -42.6875,-40.9673 -42.6875,-75.1711 0,-34.2039 10.7638,-66.3352 42.6875,-75.1718 -16.2362,20.0523 -25.1778,46.7496 -25.1778,75.1718 0,28.4223 8.9416,55.1188 25.1778,75.1711 z"
       fill="#c0c0c0"
       style="stroke:none" />
    <path
       d="m 303.9467,507.0482 c 17.8942,0 32.4525,-15.9315 54.0874,-47.3514 3.0725,7.4698 2.4172,15.7632 -1.966,24.8801 -5.4823,11.7429 -12.8873,22.0935 -22.9798,30.502 -6.0021,5.0004 -17.4061,9.596 -29.1416,9.596 -11.7356,0 -23.1396,-4.5956 -29.1416,-9.596 -10.0926,-8.4085 -17.4975,-18.7591 -22.9799,-30.502 -4.3832,-9.1169 -5.0385,-17.4103 -1.966,-24.8801 21.635,31.4199 36.1932,47.3514 54.0875,47.3514 z"
       fill="#808080"
       style="stroke:none" />
    <path
       d="m 412.9437,411.7884 c 25.3098,0.6762 32.4297,21.9406 32.4297,44.5795 0,22.6392 -7.12,43.9038 -32.4297,44.5803 9.6216,-11.8886 14.92,-27.7213 14.92,-44.5803 0,-16.8589 -5.2984,-32.6916 -14.92,-44.5795 z"
       fill="#808080"
       style="stroke:none" />
  <path
	 style="stroke:none"
	 fill="#000000"
	 d="m 247.6553,384.869 c 0.949,-4.2704 9.7318,-42.3702 17.1458,-64.3533 5.9753,-17.7169 12.0273,-33.5673 16.8305,-43.0295 4.8031,-9.4622 8.3574,-12.5362 12.224,-14.7937 2.2976,-1.3415 4.7055,-2.3946 10.0911,-2.3946 5.3855,0 7.7934,1.0531 10.0911,2.3946 3.8665,2.2575 7.4208,5.3315 12.224,14.7937 4.8031,9.4622 10.8551,25.3126 16.8304,43.0295 7.4141,21.9831 16.1968,60.0829 17.1458,64.3533 l 1.1682,4.3668 1.548,4.2937 1.928,4.2147 2.3093,4.1259 2.6921,4.025 3.0759,3.9088 3.46,3.7757 3.8433,3.6236 4.1178,4.0216 3.6269,4.3971 3.1045,4.7331 2.5523,5.026 c 0.9712,2.2106 1.7825,4.4915 2.4222,6.8197 l 1.18,5.52 0.5352,5.6481 -0.1132,5.5506 -0.3203,2.7342 -0.6192,3.4365 c -0.4757,2.3259 -0.9492,4.0163 -1.592,5.8034 -0.6355,1.7667 -1.4364,3.6278 -2.3508,5.431 -0.9063,1.7871 -1.9241,3.5174 -3.0389,5.1824 l -3.6027,4.7714 -4.0951,4.3564 -4.324,3.7981 -3.9961,2.9152 c -2.85,1.9029 -6.4078,4.0195 -12.0309,6.6878 l -27.8654,12.3727 c -6.7669,4.0669 -18.1709,8.2664 -29.9064,8.2664 -11.7356,0 -23.1396,-4.1995 -29.9065,-8.2664 l -27.8653,-12.3727 c -5.6231,-2.6683 -9.181,-4.7849 -12.031,-6.6878 l -3.996,-2.9152 -4.324,-3.7981 -4.0951,-4.3564 -3.6027,-4.7714 c -1.1149,-1.665 -2.1327,-3.3953 -3.0389,-5.1824 -0.9145,-1.8032 -1.7154,-3.6643 -2.3509,-5.431 -0.6428,-1.7871 -1.1162,-3.4775 -1.592,-5.8034 l -0.6192,-3.4365 -0.3203,-2.7342 -0.1132,-5.5506 0.5352,-5.6481 1.18,-5.52 c 0.6397,-2.3282 1.451,-4.6091 2.4222,-6.8197 l 2.5523,-5.026 3.1045,-4.7331 3.6269,-4.3971 4.1178,-4.0216 3.8433,-3.6236 3.4601,-3.7757 3.0758,-3.9088 2.6921,-4.025 2.3093,-4.1259 1.928,-4.2147 1.548,-4.2937 z m 117.1698,97.3739 c 8.1378,-5.8369 13.4615,-13.3119 14.9749,-21.4588 2.0705,-11.1378 -2.0748,-22.5108 -11.0874,-30.4214 -13.2487,-11.6282 -22.0896,-26.046 -25.5671,-41.6955 -25.0854,-112.8864 -31.5695,-118.0875 -39.1988,-118.0875 -7.6294,0 -14.1134,5.2011 -39.1989,118.0875 -3.4775,15.6495 -12.3184,30.0673 -25.5671,41.6955 -9.0125,7.9106 -13.1579,19.2836 -11.0874,30.4214 1.5134,8.1469 6.8371,15.6219 14.9749,21.4588 9.3061,5.3516 27.1392,13.4406 37.4456,17.9563 11.148,4.8845 13.4897,5.5882 16.3432,6.1542 l 4.4877,0.6122 2.602,0.0826 2.6019,-0.0826 4.4877,-0.6122 c 2.8535,-0.566 5.1952,-1.2697 16.3432,-6.1542 10.3064,-4.5157 28.1395,-12.6047 37.4456,-17.9563 z" />
  </g>
</svg>
